<svg width="90" height="90" viewBox="0 0 90 90" fill="none" xmlns="http://www.w3.org/2000/svg">
<g clip-path="url(#clip0_17277_44780)">
<rect width="90" height="90" rx="45" fill="white"/>
<path d="M26.3024 38.3204H44.4694C48.1159 38.316 51.6337 39.6679 54.3388 42.1131C57.0439 44.5584 58.743 47.9222 59.1057 51.5506C59.1057 51.5506 59.1057 51.6217 59.1057 51.6533C60.0219 61.8584 59.8955 82.4582 59.1057 92.6475C59.1057 93.0582 59.0267 93.5637 58.9556 94.1245C58.5304 97.6669 56.8212 100.93 54.1516 103.297C51.4819 105.664 48.0372 106.97 44.4694 106.968H19.0199C15.9853 106.988 13.0214 106.053 10.5478 104.295C8.07415 102.537 6.21609 100.046 5.23667 97.1734C5.15796 96.9509 5.09203 96.7241 5.0392 96.4941C3.8623 91.3442 3.45947 80.3887 5.0392 75.3415C5.92385 72.5295 10.8921 68.4775 11.7689 65.6656C13.1354 61.3213 10.0312 51.6612 11.7689 47.4512C12.3455 46.0611 14.3833 43.9679 16.3896 42.1433C19.1001 39.675 22.6365 38.3111 26.3024 38.3204Z" fill="#CC4944"/>
<path opacity="0.5" d="M26.3024 38.3204H44.4694C48.1159 38.316 51.6337 39.6679 54.3388 42.1131C57.0439 44.5584 58.743 47.9222 59.1057 51.5506C59.1057 51.5506 59.1057 51.6217 59.1057 51.6533C60.0219 61.8584 59.8955 82.4582 59.1057 92.6475C59.1057 93.0582 59.0267 93.5637 58.9556 94.1245C58.5304 97.6669 56.8212 100.93 54.1516 103.297C51.4819 105.664 48.0372 106.97 44.4694 106.968H19.0199C15.9853 106.988 13.0214 106.053 10.5478 104.295C8.07415 102.537 6.21609 100.046 5.23667 97.1734C5.15796 96.9509 5.09203 96.7241 5.0392 96.4941C3.8623 91.3442 3.45947 80.3887 5.0392 75.3415C5.92385 72.5295 10.8921 68.4775 11.7689 65.6656C13.1354 61.3213 10.0312 51.6612 11.7689 47.4512C12.3455 46.0611 14.3833 43.9679 16.3896 42.1433C19.1001 39.675 22.6365 38.3111 26.3024 38.3204Z" fill="black"/>
<path d="M19.0436 41.4452C18.8191 41.1556 18.5366 40.9162 18.2142 40.7422C17.5691 41.1579 16.9589 41.6255 16.3896 42.1403C14.3833 43.9649 12.3455 46.0896 11.7689 47.4482C10.0312 51.6582 13.1354 61.3183 11.7689 65.6625C10.8921 68.4745 5.92385 72.5265 5.0392 75.3384C3.45946 80.3857 3.8623 91.3411 5.0392 96.4911C5.09203 96.7211 5.15796 96.9479 5.23667 97.1704C6.07836 99.6587 7.58578 101.869 9.59518 103.561C11.6046 105.253 14.0391 106.362 16.6345 106.767C17.1289 106.544 17.5827 106.239 17.9772 105.867C20.1178 103.687 21.8397 45.4972 19.0436 41.4452Z" fill="#CC4944"/>
<path opacity="0.2" d="M19.0436 41.4452C18.8191 41.1556 18.5366 40.9162 18.2142 40.7422C17.5691 41.1579 16.9589 41.6255 16.3896 42.1403C14.3833 43.9649 12.3455 46.0896 11.7689 47.4482C10.0312 51.6582 13.1354 61.3183 11.7689 65.6625C10.8921 68.4745 5.92385 72.5265 5.0392 75.3384C3.45946 80.3857 3.8623 91.3411 5.0392 96.4911C5.09203 96.7211 5.15796 96.9479 5.23667 97.1704C6.07836 99.6587 7.58578 101.869 9.59518 103.561C11.6046 105.253 14.0391 106.362 16.6345 106.767C17.1289 106.544 17.5827 106.239 17.9772 105.867C20.1178 103.687 21.8397 45.4972 19.0436 41.4452Z" fill="white"/>
<path opacity="0.3" d="M12.6712 98.8975L7.63979 96.4489C7.16732 96.2206 6.76863 95.864 6.48927 95.4198C6.20991 94.9757 6.06117 94.4618 6.06006 93.9371V83.1554C6.06006 82.4159 6.35382 81.7067 6.87672 81.1838C7.39961 80.6609 8.10881 80.3672 8.84829 80.3672H14.3774C14.7516 80.367 15.1221 80.4421 15.4667 80.5881C15.8114 80.7341 16.123 80.948 16.3832 81.2171C16.6434 81.4861 16.8468 81.8048 16.9812 82.1541C17.1156 82.5034 17.1783 82.8761 17.1656 83.2502L16.6917 96.4884C16.6784 96.9552 16.5478 97.4112 16.3119 97.8143C16.0759 98.2173 15.7422 98.5545 15.3416 98.7945C14.9409 99.0346 14.4863 99.1699 14.0196 99.1879C13.5529 99.2059 13.0892 99.106 12.6712 98.8975Z" fill="black"/>
<path d="M78 68.6528L75.82 68.8187C75.6997 68.8509 75.5852 68.9015 75.4804 68.9687L75.0933 69.1662C74.8405 69.3084 74.5878 69.4348 74.3034 69.5611C73.7979 69.8218 73.2845 70.0508 72.7948 70.2483C72.2955 70.4571 71.7805 70.6262 71.2546 70.7538L70.7806 62.0653C70.7016 60.3355 70.5753 58.6136 70.4726 56.8837C70.3699 55.1539 70.2356 53.4083 70.0777 51.7575V51.6469C69.8744 49.9419 69.0278 48.3789 67.7108 47.2771C66.3939 46.1753 64.7059 45.6178 62.9918 45.7187C61.2777 45.8195 59.6668 46.571 58.4881 47.8196C57.3094 49.0682 56.6519 50.7197 56.6499 52.4368C56.6499 54.3167 56.8079 56.0781 56.95 57.8869C57.0922 59.6957 57.2818 61.4808 57.5266 63.2738L57.8821 65.9672L58.3165 68.6528C58.593 70.4458 58.9563 72.2309 59.3196 74.0239L59.4855 74.8137C59.5982 75.3338 59.81 75.8273 60.1095 76.2671C60.7748 77.2697 61.5718 78.1782 62.4791 78.9684C63.5723 79.9225 64.8491 80.6429 66.231 81.0853C67.6105 81.5109 69.0675 81.6242 70.4963 81.417C71.6519 81.2476 72.7739 80.8985 73.8216 80.3823C75.4291 79.5486 76.8738 78.4329 78.0869 77.0886C78.6231 76.4998 79.1242 75.88 79.5877 75.2324C79.8167 74.9085 80.03 74.5847 80.2353 74.2529L80.5434 73.7395L80.8672 73.1708C81.1679 72.6465 81.3029 72.0435 81.2543 71.441C81.1917 70.64 80.814 69.8966 80.2038 69.3738C79.5937 68.8511 78.8011 68.5918 78 68.6528Z" fill="#263238"/>
<path d="M67.7274 44.59C72.8931 48.9106 73.3591 63.7285 73.3591 63.7285C71.0369 68.5072 65.5078 69.2971 60.7923 70.0475C60.7923 70.0475 54.7893 66.0271 53.486 55.4744C52.5303 47.6942 57.2932 35.8462 67.7274 44.59Z" fill="#CC4944"/>
<g opacity="0.2">
<path d="M67.7278 44.5861C72.8936 48.9067 73.3596 63.7246 73.3596 63.7246C71.0374 68.5033 65.5083 69.2932 60.7928 70.0436C60.7928 70.0436 54.7898 66.0231 53.4865 55.4705C52.5308 47.6903 57.2937 35.8423 67.7278 44.5861Z" fill="black"/>
</g>
<path d="M61.0556 41.1634C51.9848 39.4091 42.7476 38.6647 33.5129 38.9438C28.1734 39.1729 24.1293 42.1033 23.7265 52.964C22.9366 75.0013 19.2479 91.8887 21.2779 100.04C21.2779 100.04 60.7081 115.577 73.3539 105.569C78.7092 79.5035 71.3634 56.6685 67.9275 47.119C67.3906 45.6193 66.4762 44.2833 65.2725 43.2401C64.0687 42.1969 62.6164 41.4816 61.0556 41.1634Z" fill="#CC4944"/>
<path opacity="0.2" d="M21.8039 77.6208C21.4327 81.3647 21.101 84.7848 20.8877 87.8495C24.687 88.4182 31.235 86.6332 41.6691 76.0884L38.7387 74.4297L21.8039 77.6208Z" fill="black"/>
<path d="M57.7477 43.2473C56.792 42.1178 55.6388 42.6075 55.2754 41.004C55.1689 39.7634 55.4955 38.5241 56.1996 37.497L44.3516 29.5352C44.1541 34.1638 43.9882 37.813 41.7766 39.448C40.8525 42.8207 46.8791 46.857 55.4176 47.7337C60.8282 48.2708 59.1142 44.8744 57.7477 43.2473Z" fill="#CE7A63"/>
<path opacity="0.2" d="M55.9778 37.8694L46.3335 34.4414C48.4503 38.6119 52.7393 41.1948 55.2511 40.476C55.2641 39.559 55.5145 38.6609 55.9778 37.8694Z" fill="black"/>
<path d="M54.0565 14.9474C47.6585 12.87 41.4976 17.7514 42.2085 23.7939C42.9193 29.8364 43.5196 33.92 47.4137 36.3291C55.1623 41.1236 59.5066 37.6403 60.7703 31.5188C61.8446 26.0055 60.5571 17.0563 54.0565 14.9474Z" fill="#CE7A63"/>
<path d="M54.5118 31.884C54.7891 31.891 55.0665 31.8752 55.3412 31.8367C55.3838 31.8307 55.4225 31.8085 55.449 31.7746C55.4756 31.7407 55.4879 31.6978 55.4834 31.655C55.4805 31.6331 55.4732 31.612 55.4621 31.593C55.4509 31.5739 55.4361 31.5573 55.4185 31.5441C55.4008 31.5308 55.3807 31.5212 55.3593 31.5159C55.3379 31.5105 55.3156 31.5095 55.2938 31.5128C54.6058 31.6151 53.9033 31.5541 53.2433 31.3345C52.5833 31.1149 51.9842 30.7431 51.4946 30.249C51.4637 30.2196 51.4227 30.2031 51.38 30.2031C51.3373 30.2031 51.2963 30.2196 51.2655 30.249C51.2499 30.2638 51.2376 30.2815 51.2291 30.3012C51.2207 30.3209 51.2163 30.3421 51.2163 30.3635C51.2163 30.385 51.2207 30.4062 51.2291 30.4259C51.2376 30.4456 51.2499 30.4633 51.2655 30.4781C51.6853 30.9173 52.1888 31.268 52.7464 31.5095C53.304 31.751 53.9042 31.8783 54.5118 31.884Z" fill="#263238"/>
<path d="M52.8247 25.4996C52.8247 26.0288 53.1486 26.4474 53.4961 26.4237C53.8437 26.4 54.1043 25.9656 54.0806 25.4364C54.057 24.9072 53.7568 24.4885 53.4093 24.5043C53.0617 24.5201 52.801 24.9704 52.8247 25.4996Z" fill="#263238"/>
<path d="M59.0498 25.2691C59.0498 25.7983 59.3737 26.217 59.7133 26.1933C60.053 26.1696 60.3294 25.7351 60.3057 25.2059C60.282 24.6767 59.9819 24.2581 59.6344 24.2739C59.2868 24.2897 59.0261 24.7399 59.0498 25.2691Z" fill="#263238"/>
<path d="M56.9595 25.6367L56.8252 30.0916C57.2123 30.2001 57.6184 30.223 58.0153 30.1589C58.4122 30.0948 58.7904 29.9452 59.1237 29.7203C58.7671 28.195 58.0215 26.7881 56.9595 25.6367Z" fill="#BA4D3C"/>
<path d="M50.9139 24.0994C50.8623 24.1148 50.8074 24.1148 50.7559 24.0994C50.7179 24.0846 50.6831 24.0624 50.6538 24.0341C50.6244 24.0057 50.6009 23.9718 50.5848 23.9343C50.5686 23.8969 50.56 23.8565 50.5596 23.8157C50.5591 23.7749 50.5668 23.7344 50.5821 23.6966C50.7521 23.2305 51.0295 22.811 51.3918 22.4721C51.754 22.1331 52.191 21.8842 52.6674 21.7456C52.7073 21.7368 52.7486 21.7359 52.7889 21.7431C52.8291 21.7502 52.8676 21.7652 52.9021 21.7872C52.9365 21.8092 52.9664 21.8378 52.9898 21.8713C53.0132 21.9048 53.0298 21.9426 53.0386 21.9826C53.0474 22.0225 53.0483 22.0638 53.0412 22.1041C53.034 22.1443 53.019 22.1828 52.997 22.2173C52.975 22.2517 52.9464 22.2815 52.9129 22.305C52.8794 22.3284 52.8416 22.345 52.8017 22.3538C52.4241 22.47 52.0793 22.6736 51.7952 22.9481C51.5111 23.2226 51.2958 23.5602 51.1666 23.9335C51.1412 23.9797 51.1048 24.0189 51.0608 24.0478C51.0168 24.0767 50.9663 24.0944 50.9139 24.0994Z" fill="#263238"/>
<path d="M61.2829 23.1234C61.2382 23.1185 61.195 23.1048 61.1557 23.0831C61.1164 23.0614 61.0817 23.0321 61.0538 22.997C60.8671 22.6538 60.6 22.361 60.2753 22.1436C59.9507 21.9263 59.5782 21.7909 59.1897 21.749C59.1486 21.748 59.108 21.7388 59.0705 21.7218C59.033 21.7049 58.9992 21.6806 58.9713 21.6504C58.9433 21.6203 58.9216 21.5848 58.9076 21.5461C58.8936 21.5074 58.8874 21.4662 58.8896 21.4251C58.8956 21.3434 58.9323 21.267 58.9924 21.2113C59.0525 21.1556 59.1315 21.1248 59.2134 21.125C59.7064 21.1782 60.1792 21.3496 60.5917 21.6246C61.0043 21.8996 61.3443 22.2702 61.583 22.7047C61.6046 22.7394 61.619 22.778 61.6255 22.8183C61.632 22.8586 61.6304 22.8998 61.6209 22.9395C61.6113 22.9792 61.594 23.0165 61.5699 23.0495C61.5457 23.0824 61.5153 23.1102 61.4803 23.1313C61.415 23.1469 61.3467 23.1442 61.2829 23.1234Z" fill="#263238"/>
<path d="M45.2612 29.1086C45.2612 29.1086 47.6308 29.8984 47.2438 26.423C47.0527 23.7641 47.0659 21.0944 47.2833 18.4375C47.2833 18.4375 62.8042 20.0883 61.3271 15.3412C60.5372 12.7188 57.2356 15.4913 57.2356 15.4913C57.2356 15.4913 58.681 12.4424 56.58 11.8263C54.7712 11.2971 54.084 14.1959 54.084 14.1959C54.084 14.1959 42.5125 11.0838 40.83 19.4485C39.1476 27.8132 45.2612 29.1086 45.2612 29.1086Z" fill="#263238"/>
<path d="M39.7989 11.7626C32.5795 18.1605 36.6395 24.0687 39.3013 26.7701C37.9585 28.5315 34.728 33.089 36.0313 34.4476C37.3346 35.8062 39.9095 30.2376 40.81 28.1287L41.0548 28.3182C41.0548 28.3182 42.8084 20.4985 54.0798 14.1954C54.0798 14.1717 48.1478 4.36153 39.7989 11.7626Z" fill="#CC4944"/>
<path d="M53.478 13.3067C53.0437 12.7458 52.5685 12.2177 52.0562 11.727C51.656 11.5714 51.2246 11.5133 50.7975 11.5572C50.3704 11.6011 49.9599 11.746 49.5997 11.9797C47.5224 13.1961 48.3359 14.7601 49.2838 15.8106C50.5845 14.8228 51.9913 13.983 53.478 13.3067Z" fill="#263238"/>
<path opacity="0.5" d="M36.8389 15.293C34.0665 20.2533 37.1154 24.5502 39.2875 26.7382L41.1358 24.2738C38.9537 21.7004 37.4735 18.6068 36.8389 15.293Z" fill="white"/>
<path d="M59.7992 23.1602C59.2896 23.2121 58.8154 23.4445 58.462 23.8152C58.1087 24.186 57.8994 24.6708 57.8719 25.1822C57.6721 25.0601 57.4425 24.9954 57.2084 24.9954C56.9742 24.9954 56.7446 25.0601 56.5449 25.1822C56.4333 24.5917 56.1098 24.0624 55.6353 23.6937C55.1608 23.325 54.5679 23.1424 53.9681 23.1803C53.3684 23.2181 52.8032 23.4738 52.3788 23.8992C51.9543 24.3246 51.7 24.8904 51.6635 25.4903H42.8091V25.7983H51.6635C51.6844 26.4519 51.9642 27.0704 52.4412 27.5178C52.9181 27.9651 53.5533 28.2047 54.2069 28.1837C54.8605 28.1628 55.479 27.883 55.9263 27.4061C56.3737 26.9291 56.6132 26.2939 56.5923 25.6403C56.5923 25.6403 56.5923 25.5692 56.5923 25.5377C56.7656 25.3844 56.9889 25.2998 57.2202 25.2998C57.4515 25.2998 57.6749 25.3844 57.8482 25.5377C57.8482 25.5377 57.8482 25.6008 57.8482 25.6324C57.8482 26.9989 58.7328 28.1047 59.8149 28.1047C60.8971 28.1047 61.7817 26.9989 61.7817 25.6324C61.7817 24.266 60.8813 23.1602 59.7992 23.1602ZM54.12 27.8046C53.6901 27.8061 53.2693 27.6801 52.9111 27.4423C52.5528 27.2046 52.2732 26.8659 52.1076 26.4692C51.942 26.0724 51.8978 25.6354 51.9807 25.2135C52.0637 24.7917 52.2699 24.4039 52.5734 24.0993C52.8768 23.7947 53.2638 23.5871 53.6854 23.5026C54.107 23.4182 54.5441 23.4607 54.9415 23.6249C55.3389 23.7891 55.6786 24.0675 55.9176 24.4248C56.1566 24.7822 56.2842 25.2025 56.2842 25.6324C56.2842 26.2072 56.0565 26.7585 55.6508 27.1656C55.2452 27.5727 54.6947 27.8025 54.12 27.8046ZM59.7992 27.8046C58.8829 27.8046 58.1404 26.833 58.1404 25.6324C58.1404 24.4318 58.8829 23.4682 59.7992 23.4682C60.7154 23.4682 61.4658 24.4397 61.4658 25.6324C61.4658 26.8251 60.7154 27.8046 59.7992 27.8046Z" fill="#CC4944"/>
<path opacity="0.5" d="M59.7992 23.1602C59.2896 23.2121 58.8154 23.4445 58.462 23.8152C58.1087 24.186 57.8994 24.6708 57.8719 25.1822C57.6721 25.0601 57.4425 24.9954 57.2084 24.9954C56.9742 24.9954 56.7446 25.0601 56.5449 25.1822C56.4333 24.5917 56.1098 24.0624 55.6353 23.6937C55.1608 23.325 54.5679 23.1424 53.9681 23.1803C53.3684 23.2181 52.8032 23.4738 52.3788 23.8992C51.9543 24.3246 51.7 24.8904 51.6635 25.4903H42.8091V25.7983H51.6635C51.6844 26.4519 51.9642 27.0704 52.4412 27.5178C52.9181 27.9651 53.5533 28.2047 54.2069 28.1837C54.8605 28.1628 55.479 27.883 55.9263 27.4061C56.3737 26.9291 56.6132 26.2939 56.5923 25.6403C56.5923 25.6403 56.5923 25.5692 56.5923 25.5377C56.7656 25.3844 56.9889 25.2998 57.2202 25.2998C57.4515 25.2998 57.6749 25.3844 57.8482 25.5377C57.8482 25.5377 57.8482 25.6008 57.8482 25.6324C57.8482 26.9989 58.7328 28.1047 59.8149 28.1047C60.8971 28.1047 61.7817 26.9989 61.7817 25.6324C61.7817 24.266 60.8813 23.1602 59.7992 23.1602ZM54.12 27.8046C53.6901 27.8061 53.2693 27.6801 52.9111 27.4423C52.5528 27.2046 52.2732 26.8659 52.1076 26.4692C51.942 26.0724 51.8978 25.6354 51.9807 25.2135C52.0637 24.7917 52.2699 24.4039 52.5734 24.0993C52.8768 23.7947 53.2638 23.5871 53.6854 23.5026C54.107 23.4182 54.5441 23.4607 54.9415 23.6249C55.3389 23.7891 55.6786 24.0675 55.9176 24.4248C56.1566 24.7822 56.2842 25.2025 56.2842 25.6324C56.2842 26.2072 56.0565 26.7585 55.6508 27.1656C55.2452 27.5727 54.6947 27.8025 54.12 27.8046ZM59.7992 27.8046C58.8829 27.8046 58.1404 26.833 58.1404 25.6324C58.1404 24.4318 58.8829 23.4682 59.7992 23.4682C60.7154 23.4682 61.4658 24.4397 61.4658 25.6324C61.4658 26.8251 60.7154 27.8046 59.7992 27.8046Z" fill="white"/>
<path d="M40.1892 28.9303C40.9256 30.1565 42.1189 31.0401 43.5067 31.3868C45.355 31.8291 46.2238 30.1546 45.663 28.4485C45.1575 26.9161 43.5936 24.8309 41.7611 25.1547C41.3628 25.2305 40.9896 25.4039 40.6749 25.6595C40.3602 25.9151 40.1139 26.2448 39.9581 26.6191C39.8023 26.9933 39.7418 27.4004 39.7822 27.8038C39.8225 28.2072 39.9624 28.5943 40.1892 28.9303Z" fill="#CE7A63"/>
<path d="M41.5907 40.1778C39.5607 38.053 36.109 37.745 33.305 38.4006V38.9377C35.8879 39.1746 40.1295 41.0624 41.022 52.6972C42.1989 68.0759 25.5959 86.6615 20.4459 91.843C19.5217 92.7792 18.9616 94.0143 18.8662 95.3263L18.6608 97.9882C18.6379 98.2797 18.7015 98.5714 18.8436 98.8269C18.9858 99.0824 19.2002 99.2902 19.46 99.4243C19.7198 99.5584 20.0134 99.6129 20.304 99.5808C20.5946 99.5487 20.8693 99.4316 21.0936 99.2441C28.0919 93.4228 46.3694 76.2747 46.3694 55.8014C46.3299 47.4051 44.0551 42.7448 41.5907 40.1778Z" fill="#CC4944"/>
<path opacity="0.5" d="M41.5907 40.1778C39.5607 38.053 36.109 37.745 33.305 38.4006V38.9377C35.8879 39.1746 40.1295 41.0624 41.022 52.6972C42.1989 68.0759 25.5959 86.6615 20.4459 91.843C19.5217 92.7792 18.9616 94.0143 18.8662 95.3263L18.6608 97.9882C18.6379 98.2797 18.7015 98.5714 18.8436 98.8269C18.9858 99.0824 19.2002 99.2902 19.46 99.4243C19.7198 99.5584 20.0134 99.6129 20.304 99.5808C20.5946 99.5487 20.8693 99.4316 21.0936 99.2441C28.0919 93.4228 46.3694 76.2747 46.3694 55.8014C46.3299 47.4051 44.0551 42.7448 41.5907 40.1778Z" fill="black"/>
<path d="M43.3677 71.7315C43.2347 71.3087 43.0196 70.9162 42.7348 70.5765C42.4499 70.2369 42.1009 69.9567 41.7077 69.752C41.3145 69.5473 40.8848 69.4222 40.4432 69.3837C40.0016 69.3452 39.5567 69.3942 39.134 69.5278L38.9761 69.5752C37.0725 70.1755 35.0267 70.8548 33.1153 71.4235C31.2038 71.9922 29.2291 72.5451 27.3492 72.9479C26.4172 73.1454 25.5009 73.335 24.6163 73.4534C24.0397 73.5245 23.4868 73.5798 22.9654 73.6035C23.0365 73.1059 23.1234 72.6004 23.2498 72.0791C23.4443 71.2434 23.6897 70.4204 23.9844 69.6147C24.2608 68.7774 24.6084 67.9244 24.9796 67.0713C25.7619 65.3183 26.64 63.6096 27.6099 61.953C28.0917 61.0999 28.6209 60.2626 29.1422 59.4333L29.9321 58.209L30.327 57.6166L30.6588 57.1269L30.9115 56.7635C31.9041 55.3168 32.2924 53.5398 31.9938 51.8109C31.6953 50.0821 30.7333 48.5382 29.313 47.5083C27.8927 46.4783 26.1264 46.0438 24.3904 46.2972C22.6543 46.5506 21.0859 47.4719 20.0193 48.8648L19.3716 49.7179L18.8028 50.5078C18.4316 51.0212 18.0841 51.5425 17.7444 52.0875C17.0493 53.1222 16.4175 54.1964 15.8014 55.247C15.1853 56.2975 14.6323 57.4507 14.0873 58.5881C13.5423 59.7255 13.0447 60.9024 12.6024 62.1188C11.6363 64.6269 10.9606 67.2373 10.5882 69.899C10.3766 71.329 10.2894 72.7746 10.3276 74.2196C10.3711 75.7617 10.5642 77.296 10.9042 78.8008L10.9832 79.1484C11.1728 79.9451 11.537 80.6897 12.0495 81.3284C12.9119 82.3993 13.9879 83.279 15.209 83.9113C16.2146 84.4249 17.2981 84.7692 18.4158 84.9302C20.0502 85.1645 21.7116 85.1352 23.3367 84.8433C24.6473 84.6283 25.937 84.3006 27.1912 83.8639C28.376 83.4611 29.4977 83.0266 30.5798 82.5369C32.679 81.587 34.7133 80.4999 36.6697 79.2827C38.592 78.0982 40.4386 76.795 42.1987 75.3807C42.7391 74.9615 43.1399 74.3885 43.3486 73.7372C43.5572 73.0859 43.5639 72.3867 43.3677 71.7315Z" fill="#263238"/>
<path d="M27.5309 40.5644C16.765 46.2357 12.0811 59.0236 12.0811 59.0236C14.1821 63.0835 24.5136 66.322 29.3318 65.1451C29.3318 65.1451 36.4406 57.9968 37.4437 50.4615C38.36 43.5264 33.8419 37.2075 27.5309 40.5644Z" fill="#CC4944"/>
<g opacity="0.2">
<path d="M27.527 40.5683C16.7611 46.2396 12.0771 59.0275 12.0771 59.0275C14.1782 63.0875 24.5097 66.3259 29.3279 65.149C29.3279 65.149 36.4367 58.0007 37.4398 50.4654C38.356 43.5303 33.838 37.2114 27.527 40.5683Z" fill="black"/>
</g>
<path d="M39.4033 71.3781L40.9831 73.5976C44.6165 76.062 46.9861 70.8331 46.9861 70.8331L49.1345 68.7794C49.4919 68.3936 49.7002 67.8931 49.7219 67.3676C49.7436 66.8422 49.5774 66.3262 49.253 65.9122L47.5864 63.5031C47.2704 62.9924 46.7683 62.6244 46.1861 62.477C45.604 62.3296 44.9873 62.4143 44.4664 62.7132L42.3179 64.1745C41.6948 64.602 41.1873 65.1774 40.8409 65.849L39.2612 68.89C39.0566 69.2785 38.9618 69.7154 38.9868 70.1538C39.0119 70.5921 39.1559 71.0154 39.4033 71.3781Z" fill="#CE7A63"/>
<path d="M74.4392 72.6015L74.6524 68.6522C74.7419 67.0633 74.6197 65.4696 74.2891 63.913C72.5011 55.6225 68.4868 47.9763 62.678 41.7967C62.3306 41.435 61.8817 41.1872 61.3905 41.0858L57.3543 40.2407C57.2872 40.2269 57.2175 40.2359 57.1561 40.2662C57.0947 40.2965 57.0452 40.3463 57.0153 40.4079C56.9854 40.4695 56.9769 40.5393 56.9911 40.6063C57.0053 40.6733 57.0414 40.7336 57.0937 40.7778C60.6955 43.6055 71.88 53.8106 74.1548 72.6015H74.4392Z" fill="#CC4944"/>
<path opacity="0.5" d="M74.4392 72.6015L74.6524 68.6522C74.7419 67.0633 74.6197 65.4696 74.2891 63.913C72.5011 55.6225 68.4868 47.9763 62.678 41.7967C62.3306 41.435 61.8817 41.1872 61.3905 41.0858L57.3543 40.2407C57.2872 40.2269 57.2175 40.2359 57.1561 40.2662C57.0947 40.2965 57.0452 40.3463 57.0153 40.4079C56.9854 40.4695 56.9769 40.5393 56.9911 40.6063C57.0053 40.6733 57.0414 40.7336 57.0937 40.7778C60.6955 43.6055 71.88 53.8106 74.1548 72.6015H74.4392Z" fill="black"/>
<path d="M81.1618 71.3781L79.5821 73.5976C75.9408 76.062 73.579 70.8331 73.579 70.8331L71.4306 68.7794C71.0732 68.3936 70.8649 67.8931 70.8432 67.3676C70.8215 66.8422 70.9877 66.3262 71.3121 65.9122L72.9787 63.5031C73.2947 62.9924 73.7968 62.6244 74.3789 62.477C74.9611 62.3296 75.5778 62.4143 76.0987 62.7132L78.2472 64.1745C78.8703 64.602 79.3778 65.1774 79.7242 65.849L81.304 68.89C81.5085 69.2785 81.6033 69.7154 81.5783 70.1538C81.5532 70.5921 81.4092 71.0154 81.1618 71.3781Z" fill="#CE7A63"/>
</g>
<defs>
<clipPath id="clip0_17277_44780">
<rect width="90" height="90" rx="45" fill="white"/>
</clipPath>
</defs>
</svg>
