<svg width="90" height="90" viewBox="0 0 90 90" fill="none" xmlns="http://www.w3.org/2000/svg">
<g clip-path="url(#clip0_19291_33085)">
<rect width="90" height="90" rx="45" fill="#FFE7E7"/>
<path d="M82.9906 79.8563L80.3241 80.0591C80.177 80.0986 80.0369 80.1605 79.9087 80.2427L79.4353 80.4842C79.1262 80.6581 78.817 80.8127 78.4692 80.9673C77.8509 81.2861 77.2229 81.5663 76.624 81.8078C76.0133 82.0632 75.3834 82.2699 74.7401 82.4261L74.1604 71.799C74.0638 69.6832 73.9093 67.5772 73.7837 65.4614C73.6581 63.3456 73.4938 61.2106 73.3006 59.1914V59.0562C73.052 56.9708 72.0165 55.059 70.4057 53.7114C68.7949 52.3637 66.7304 51.6819 64.6338 51.8052C62.5373 51.9286 60.5669 52.8477 59.1252 54.3749C57.6836 55.9021 56.8794 57.9221 56.877 60.0223C56.877 62.3216 57.0701 64.476 57.244 66.6883C57.4179 68.9007 57.6498 71.0841 57.9493 73.2771L58.3841 76.5715L58.9154 79.8563C59.2535 82.0493 59.6979 84.2327 60.1423 86.4257L60.3452 87.3918C60.483 88.0279 60.7421 88.6315 61.1084 89.1695C61.9221 90.3957 62.897 91.507 64.0067 92.4735C65.3438 93.6404 66.9055 94.5215 68.5957 95.0626C70.283 95.5832 72.0651 95.7218 73.8126 95.4684C75.2261 95.2612 76.5984 94.8342 77.8799 94.2028C79.846 93.183 81.613 91.8185 83.0968 90.1742C83.7527 89.454 84.3656 88.696 84.9324 87.9039C85.2126 87.5078 85.4734 87.1116 85.7246 86.7059L86.1014 86.0779L86.4975 85.3823C86.8652 84.741 87.0303 84.0034 86.9709 83.2666C86.8944 82.2869 86.4323 81.3776 85.6861 80.7382C84.9398 80.0988 83.9704 79.7816 82.9906 79.8563Z" fill="#263238"/>
<path d="M70.4264 50.4213C76.7447 55.7058 77.3146 73.8298 77.3146 73.8298C74.4743 79.6747 67.7117 80.6408 61.944 81.5586C61.944 81.5586 54.6017 76.6412 53.0076 63.7341C51.8387 54.218 57.6642 39.7266 70.4264 50.4213Z" fill="#6FCD9E"/>
<g opacity="0.2">
<path d="M70.4271 50.4193C76.7454 55.7039 77.3154 73.8279 77.3154 73.8279C74.475 79.6728 67.7124 80.6389 61.9448 81.5567C61.9448 81.5567 54.6024 76.6392 53.0084 63.7321C51.8394 54.2161 57.665 39.7246 70.4271 50.4193Z" fill="black"/>
</g>
<path d="M62.2656 46.2348C51.171 44.0892 39.8728 43.1787 28.5778 43.5201C22.047 43.8002 17.1005 47.3844 16.6078 60.6683C15.6417 87.6224 11.1301 108.278 13.6129 118.248C13.6129 118.248 61.8405 137.251 77.3078 125.01C83.8579 93.1292 74.8732 65.1993 70.6707 53.5192C70.014 51.6849 68.8956 50.0509 67.4233 48.7749C65.951 47.4989 64.1746 46.6241 62.2656 46.2348Z" fill="#6FCD9E"/>
<path d="M58.2199 48.7793C57.0509 47.3978 55.6404 47.9967 55.196 46.0356C55.0657 44.5181 55.4651 43.0023 56.3264 41.7461L41.8349 32.0078C41.5934 37.6691 41.3905 42.1325 38.6854 44.1323C37.5551 48.2576 44.9264 53.1943 55.3699 54.2667C61.9877 54.9237 59.8913 50.7694 58.2199 48.7793Z" fill="#CE7A63"/>
<path opacity="0.2" d="M56.0554 42.2036L44.2593 38.0107C46.8484 43.1117 52.0943 46.2709 55.1665 45.3917C55.1824 44.2701 55.4886 43.1717 56.0554 42.2036Z" fill="black"/>
<path d="M53.7051 14.1682C45.8797 11.6274 38.3442 17.5979 39.2136 24.9885C40.0831 32.3792 40.8174 37.3739 45.5802 40.3205C55.0576 46.1847 60.3712 41.9242 61.9169 34.4369C63.2308 27.6936 61.6561 16.7477 53.7051 14.1682Z" fill="#CE7A63"/>
<path d="M54.2622 34.8811C54.6014 34.8897 54.9407 34.8703 55.2767 34.8232C55.3288 34.8159 55.3761 34.7887 55.4086 34.7473C55.441 34.7058 55.4561 34.6533 55.4506 34.601C55.447 34.5742 55.4381 34.5484 55.4245 34.5251C55.4109 34.5018 55.3927 34.4815 55.3712 34.4653C55.3496 34.4491 55.325 34.4374 55.2988 34.4308C55.2726 34.4243 55.2454 34.423 55.2187 34.4271C54.3772 34.5522 53.518 34.4775 52.7107 34.209C51.9034 33.9405 51.1707 33.4856 50.5718 32.8813C50.534 32.8453 50.4838 32.8252 50.4317 32.8252C50.3795 32.8252 50.3293 32.8453 50.2916 32.8813C50.2726 32.8994 50.2574 32.9211 50.2471 32.9452C50.2368 32.9693 50.2314 32.9952 50.2314 33.0214C50.2314 33.0476 50.2368 33.0736 50.2471 33.0976C50.2574 33.1217 50.2726 33.1434 50.2916 33.1615C50.8051 33.6988 51.421 34.1277 52.1029 34.4231C52.7849 34.7184 53.5191 34.8742 54.2622 34.8811Z" fill="#263238"/>
<path d="M52.1986 27.0743C52.1986 27.7215 52.5947 28.2336 53.0198 28.2046C53.4449 28.1756 53.7637 27.6442 53.7347 26.997C53.7057 26.3497 53.3386 25.8377 52.9135 25.857C52.4885 25.8763 52.1696 26.427 52.1986 27.0743Z" fill="#263238"/>
<path d="M59.8124 26.7881C59.8124 27.4354 60.2085 27.9475 60.6239 27.9185C61.0393 27.8895 61.3775 27.3581 61.3485 26.7108C61.3195 26.0636 60.9524 25.5515 60.5273 25.5708C60.1022 25.5902 59.7834 26.1408 59.8124 26.7881Z" fill="#263238"/>
<path d="M57.2558 27.2383L57.0916 32.6871C57.5651 32.8198 58.0618 32.8479 58.5472 32.7695C59.0327 32.6911 59.4952 32.508 59.9029 32.233C59.4668 30.3674 58.5548 28.6466 57.2558 27.2383Z" fill="#BA4D3C"/>
<path d="M49.8611 25.3606C49.7981 25.3794 49.7309 25.3794 49.6679 25.3606C49.6213 25.3425 49.5789 25.3153 49.5429 25.2807C49.507 25.246 49.4783 25.2045 49.4585 25.1587C49.4388 25.1129 49.4283 25.0635 49.4278 25.0136C49.4272 24.9637 49.4366 24.9141 49.4553 24.8679C49.6632 24.2978 50.0025 23.7847 50.4456 23.3702C50.8887 22.9556 51.4232 22.6512 52.0058 22.4816C52.0547 22.4708 52.1052 22.4698 52.1544 22.4785C52.2037 22.4872 52.2507 22.5056 52.2929 22.5325C52.335 22.5594 52.3715 22.5944 52.4002 22.6354C52.4288 22.6764 52.4491 22.7226 52.4599 22.7714C52.4707 22.8203 52.4717 22.8708 52.463 22.92C52.4543 22.9693 52.4359 23.0163 52.409 23.0585C52.3821 23.1007 52.3472 23.1371 52.3062 23.1658C52.2652 23.1944 52.2189 23.2147 52.1701 23.2255C51.7083 23.3676 51.2865 23.6167 50.939 23.9524C50.5915 24.2881 50.3282 24.7011 50.1703 25.1577C50.1391 25.2141 50.0947 25.2621 50.0408 25.2974C49.9869 25.3328 49.9252 25.3545 49.8611 25.3606Z" fill="#263238"/>
<path d="M62.5435 24.164C62.4889 24.158 62.436 24.1413 62.3879 24.1147C62.3398 24.0882 62.2975 24.0524 62.2633 24.0094C62.035 23.5896 61.7082 23.2315 61.3111 22.9656C60.9141 22.6998 60.4585 22.5342 59.9833 22.4829C59.933 22.4817 59.8834 22.4704 59.8376 22.4497C59.7917 22.429 59.7504 22.3993 59.7161 22.3624C59.6819 22.3255 59.6554 22.2821 59.6383 22.2347C59.6211 22.1874 59.6136 22.1371 59.6162 22.0868C59.6236 21.9869 59.6685 21.8934 59.742 21.8253C59.8155 21.7572 59.9121 21.7195 60.0123 21.7197C60.6153 21.7848 61.1936 21.9944 61.6982 22.3308C62.2027 22.6672 62.6187 23.1204 62.9106 23.6519C62.937 23.6943 62.9546 23.7415 62.9626 23.7908C62.9706 23.8401 62.9686 23.8905 62.9569 23.939C62.9453 23.9876 62.924 24.0333 62.8945 24.0736C62.865 24.1138 62.8278 24.1479 62.785 24.1736C62.7052 24.1928 62.6216 24.1894 62.5435 24.164Z" fill="#263238"/>
<path d="M42.9475 31.4857C42.9475 31.4857 45.8458 32.4518 45.3724 28.201C45.1388 24.9488 45.1549 21.6835 45.4207 18.4337C45.4207 18.4337 64.4046 20.4529 62.5979 14.6466C61.6319 11.4392 57.5936 14.8302 57.5936 14.8302C57.5936 14.8302 59.3615 11.1011 56.7917 10.3475C54.5793 9.70022 53.7388 13.2458 53.7388 13.2458C53.7388 13.2458 39.5855 9.43937 37.5277 19.6703C35.4699 29.9013 42.9475 31.4857 42.9475 31.4857Z" fill="#263238"/>
<path d="M52.9975 12.1572C52.4664 11.4712 51.8851 10.8253 51.2586 10.2251C50.7691 10.0348 50.2414 9.96365 49.719 10.0174C49.1966 10.0712 48.6945 10.2483 48.254 10.5342C45.7132 12.022 46.7083 13.9349 47.8676 15.2198C49.4585 14.0116 51.1791 12.9844 52.9975 12.1572Z" fill="#263238"/>
<path d="M36.7442 31.2684C37.6449 32.7683 39.1044 33.849 40.8018 34.273C43.0625 34.814 44.1252 32.7659 43.4392 30.6791C42.8209 28.8049 40.9081 26.2544 38.6667 26.6505C38.1796 26.7431 37.7231 26.9553 37.3382 27.2679C36.9533 27.5805 36.6521 27.9838 36.4615 28.4416C36.2709 28.8993 36.197 29.3973 36.2463 29.8906C36.2957 30.384 36.4667 30.8575 36.7442 31.2684Z" fill="#CE7A63"/>
<path d="M48.7555 96.6305C48.527 95.8905 48.1576 95.2037 47.6685 94.6094C47.1793 94.015 46.58 93.5247 45.9047 93.1666C45.2294 92.8084 44.4915 92.5894 43.7331 92.5221C42.9747 92.4548 42.2107 92.5405 41.4849 92.7742L41.2136 92.8572C37.9445 93.9076 34.4313 95.0963 31.1487 96.0914C27.8661 97.0866 24.4749 98.0541 21.2466 98.759C19.646 99.1046 18.0725 99.4363 16.5532 99.6436C15.563 99.768 14.6135 99.8648 13.7182 99.9062C13.8403 99.0355 13.9895 98.1509 14.2066 97.2386C14.5407 95.7764 14.9619 94.3363 15.4681 92.9263C15.9428 91.4612 16.5397 89.9684 17.1772 88.4757C18.5206 85.4081 20.0285 82.4181 21.6942 79.5192C22.5216 78.0265 23.4305 76.5614 24.3257 75.1101L25.6822 72.9677L26.3604 71.9311L26.9301 71.0742L27.3642 70.4384C29.0687 67.9069 29.7357 64.7972 29.2229 61.7719C28.7101 58.7467 27.0581 56.0451 24.6191 54.2428C22.18 52.4405 19.1466 51.6801 16.1653 52.1235C13.1839 52.5669 10.4904 54.1792 8.65869 56.6167L7.54638 58.1094L6.56973 59.4916C5.9322 60.39 5.33537 61.3022 4.75209 62.2559C3.55841 64.0666 2.47326 65.9463 1.41522 67.7846C0.357187 69.6229 -0.592349 71.6408 -1.5283 73.6312C-2.46426 75.6215 -3.31883 77.6809 -4.07844 79.8095C-5.73745 84.1983 -6.89797 88.7661 -7.53739 93.4239C-7.90077 95.9261 -8.05056 98.4557 -7.98504 100.984C-7.91033 103.683 -7.57869 106.368 -6.99481 109.001L-6.85916 109.609C-6.53354 111.003 -5.90807 112.306 -5.02794 113.424C-3.54682 115.298 -1.699 116.837 0.397882 117.944C2.12491 118.842 3.98562 119.445 5.90509 119.727C8.71185 120.137 11.565 120.085 14.3558 119.574C16.6065 119.198 18.8213 118.625 20.9753 117.861C23.01 117.156 24.9361 116.396 26.7945 115.539C30.3994 113.876 33.8931 111.974 37.2527 109.844C40.554 107.771 43.7252 105.491 46.7479 103.016C47.6759 102.283 48.3643 101.28 48.7226 100.14C49.0809 99.0005 49.0924 97.777 48.7555 96.6305Z" fill="#263238"/>
<path d="M21.2611 45.5009C8.09322 52.4375 2.36426 68.0786 2.36426 68.0786C4.93408 73.0443 17.5706 77.0053 23.4638 75.5659C23.4638 75.5659 32.1587 66.8227 33.3856 57.6061C34.5063 49.1238 28.9803 41.395 21.2611 45.5009Z" fill="#6FCD9E"/>
<g opacity="0.2">
<path d="M21.2572 45.5028C8.08931 52.4394 2.36035 68.0805 2.36035 68.0805C4.93017 73.0463 17.5667 77.0073 23.4599 75.5678C23.4599 75.5678 32.1548 66.8246 33.3817 57.6081C34.5024 49.1257 28.9763 41.3969 21.2572 45.5028Z" fill="black"/>
</g>
<path d="M78.6353 84.6844L78.8961 79.8539C79.0056 77.9106 78.8561 75.9613 78.4517 74.0573C76.2649 63.9171 71.3549 54.5649 64.2501 47.0066C63.8252 46.5642 63.2761 46.2611 62.6754 46.1371L57.7386 45.1034C57.6566 45.0866 57.5713 45.0975 57.4962 45.1346C57.4211 45.1716 57.3605 45.2327 57.3239 45.308C57.2874 45.3833 57.277 45.4687 57.2943 45.5506C57.3117 45.6325 57.3558 45.7063 57.4198 45.7603C61.8252 49.219 75.5051 61.7009 78.2875 84.6844H78.6353Z" fill="#6FCD9E"/>
</g>
<defs>
<clipPath id="clip0_19291_33085">
<rect width="90" height="90" rx="45" fill="white"/>
</clipPath>
</defs>
</svg>
