<svg width="144" height="33" viewBox="0 0 144 33" fill="none" xmlns="http://www.w3.org/2000/svg">
<path fill-rule="evenodd" clip-rule="evenodd" d="M113.575 11.2931C113.575 9.60672 113.491 8.51054 112.397 8.51054C111.892 8.51054 111.639 8.59486 111.218 8.7635C111.597 14.413 110.335 19.388 108.778 19.388C106.716 19.388 107.768 7.28788 103.434 7.28788C99.4359 7.28788 98.8888 16.9427 98.4259 16.9427C98.1314 16.9427 98.0893 14.413 98.0893 12.4736C98.2576 11.5461 98.3418 10.7029 98.3418 10.0705C98.3418 9.18511 97.9631 7.62516 95.9432 8.38406C96.0274 15.2984 94.6387 19.4723 93.0817 19.4723C90.8094 19.4723 90.7673 13.1904 90.7673 11.4618C90.7673 9.77536 90.8936 7.49868 88.3687 8.3419C87.99 14.3709 86.433 18.9242 85.4231 18.9242C83.9503 18.9242 84.2449 8.51054 81.0468 8.51054C78.1432 8.51054 77.2595 18.3762 76.6704 18.3762C75.5763 18.3762 77.007 7.24572 72.8411 7.24572C70.6529 7.24572 69.7692 10.9559 68.9276 15.1298C68.7593 15.9308 68.591 15.973 68.5489 15.0455C68.5068 14.2866 68.5068 13.4855 68.5489 12.7266C69.6009 8.5527 68.2964 6.99275 66.4028 8.13109C67.034 15.8465 63.4992 19.5988 60.8061 19.5988C59.8383 19.5988 59.0387 19.1772 58.4917 18.5026C61.7319 16.5211 63.1626 14.2022 63.1626 11.9677C63.1626 9.5224 61.774 8.13109 59.4595 8.13109C56.2193 8.13109 54.452 11.4618 54.452 14.2866C54.452 15.8043 54.7465 17.1113 55.2094 18.1653C54.1153 18.7134 53.0633 19.135 52.0955 19.5988C52.0113 16.6897 51.6747 13.6542 51.4222 10.8294C49.6969 10.3656 49.1919 11.1667 49.0657 12.7266C48.7711 16.226 47.4666 18.3762 46.3305 18.3762C45.4889 18.3762 44.9418 17.3221 44.8997 16.226C44.5631 10.6186 49.1078 9.05863 51.4643 9.90184C51.9692 8.67918 51.4222 7.79381 49.2761 7.79381C46.6671 7.79381 44.7314 9.35375 43.3428 11.3775C42.3749 12.7266 41.2808 13.6963 39.8501 14.8347C39.8922 14.4974 39.8922 14.1601 39.8922 13.8228C39.8922 9.85968 37.7461 8.13109 35.7262 8.13109C34.043 8.13109 32.991 9.14295 32.3598 10.7029C32.1915 9.14295 31.8969 8.46838 31.0132 8.46838C30.6345 8.46838 30.0874 8.59486 29.4983 8.84783C29.7508 9.7332 29.877 11.6304 29.877 12.8953C29.877 17.6594 28.5305 19.7675 27.226 19.7675C25.7532 19.7675 25.5007 14.1601 25.3745 11.9677C25.122 11.8834 24.9116 11.8412 24.6591 11.8412C23.3125 11.8412 23.1442 13.6542 22.8075 15.3406C22.4288 17.1957 21.3768 19.5145 19.8198 19.5145C18.852 19.5145 18.2629 18.587 18.2208 16.9427C18.0525 13.5698 20.8719 9.60672 25.2061 10.8715C25.7953 9.5224 24.8695 8.51054 23.06 8.51054C19.8619 8.51054 17.2529 10.9137 16.0747 13.7385C14.8964 16.3103 12.8766 20.1469 8.71063 20.1469C5.76501 20.1469 3.53475 17.5751 3.53475 12.2207C3.36643 7.54084 6.31205 3.15613 9.426 3.15613C11.6142 3.15613 12.1191 5.30632 11.9087 7.33004C13.0449 8.25758 14.8964 7.41436 14.8964 5.13768C14.8964 3.57773 13.634 0.921607 9.55224 0.921607C4.46052 0.879447 0 5.93874 0 12.6001C0 19.0086 3.24019 22.803 7.86903 22.803C10.7726 22.803 13.5078 21.1588 15.4014 18.081C15.8643 20.7793 17.7158 21.8755 19.0624 21.8755C21.2927 21.8755 22.7234 20.442 23.5229 18.5026C24.0279 20.442 25.0378 21.8755 26.7631 21.8755C27.9834 21.8755 28.9513 21.2431 29.6666 20.2734C29.3721 27.0613 29.0354 31.3617 33.0331 30.5184C32.4019 28.5791 32.2335 25.0797 32.2335 21.9598C32.2335 13.359 33.6643 10.5343 35.4317 10.5343C36.7361 10.5343 37.1569 12.1785 37.1569 13.9493C37.1569 14.8768 37.0728 15.973 36.8203 16.9427C34.6321 18.334 32.9068 19.4302 32.9068 20.7793C32.9068 21.8755 33.7064 21.9598 34.4217 21.9598C36.1049 21.9598 38.1248 20.3155 39.2189 17.1957C40.1867 16.6054 41.1546 15.9308 42.1224 15.0033C42.0803 15.2984 42.0803 15.6357 42.0803 15.973C42.0803 19.0507 43.4269 20.9058 45.573 20.9058C47.2562 20.9058 48.5186 19.7253 49.4023 17.9124C49.4444 18.9664 49.4865 19.8939 49.5286 20.7793C46.1201 22.3814 42.3328 23.9835 42.3328 28.4526C42.3328 30.7714 44.016 32.5 46.1621 32.5C50.9172 32.5 52.0113 27.4407 52.0534 21.5804C53.6104 20.9058 54.7465 20.3999 56.0931 19.7253C57.2293 21.1588 58.7863 21.8755 60.217 21.8755C62.9101 21.8755 64.93 20.442 66.5711 17.5329C66.8657 19.7253 67.4127 21.8755 68.591 21.8755C70.7371 21.8755 71.1579 10.7029 72.7569 10.7029C73.9772 10.7029 72.9673 22.803 76.1654 22.803C78.9007 22.803 79.4477 12.1785 80.7522 12.1785C81.72 12.1785 81.7621 21.9177 84.7498 21.9177C86.2226 21.9177 87.8217 20.1469 88.6212 16.4368C88.9999 18.9242 90.2203 21.9177 92.6609 21.9177C94.0917 21.9177 95.312 20.4842 96.2378 18.587C96.4902 20.5685 97.0373 21.9177 98.1314 21.9177C100.909 21.9177 100.825 10.7451 103.055 10.7451C104.78 10.7451 104.233 21.9177 108.357 21.9177C110.293 21.9177 111.218 20.2312 111.807 18.1653C112.565 21.2431 113.785 21.9177 114.795 21.9177C115.426 21.9177 115.931 21.7069 116.563 20.948C113.28 19.5567 113.575 14.5395 113.575 11.2931ZM46.2884 30.4341C45.3205 30.4341 44.7735 29.5066 44.7735 28.4526C44.7735 25.5856 46.8775 24.0679 49.4444 22.7609C49.3602 29.0007 47.8874 30.4341 46.2884 30.4341ZM59.1229 10.1548C60.0907 10.1548 60.6378 11.0402 60.5536 12.305C60.4274 13.7806 59.3754 15.5092 57.4818 16.8584C56.4718 14.0336 57.2293 10.1548 59.1229 10.1548ZM89.547 5.93874C90.4727 5.89657 91.104 5.13768 91.104 4.16798C91.104 3.24045 90.4727 2.48155 89.547 2.52372C88.6212 2.56588 87.9059 3.32477 87.8638 4.29447C87.9059 5.222 88.6633 5.9809 89.547 5.93874ZM112.312 6.4025C113.154 6.36034 113.827 5.64361 113.827 4.71607C113.827 3.8307 113.154 3.11397 112.312 3.15613C111.471 3.19829 110.798 3.91502 110.798 4.84256C110.84 5.72793 111.513 6.44466 112.312 6.4025ZM143.284 13.8228C143.199 10.2813 141.516 7.28788 138.949 4.92688C136.972 3.11397 134.657 1.76482 132.216 0.752964C132.006 0.668643 131.838 0.584321 131.627 0.5C128.598 4.12582 118.162 6.82411 118.162 14.413C118.162 17.3643 120.013 20.1469 122.79 21.2431C124.39 21.8333 125.989 21.8755 127.546 21.3274C128.976 20.8636 130.112 19.9783 131.08 18.9242C134.152 15.5092 135.372 10.2813 139.16 10.2813C142.61 10.2813 143.073 12.7266 143.284 14.0758C143.284 14.0336 143.284 13.9493 143.284 13.8228Z" fill="#0070AD"/>
</svg>
