<svg width="91" height="90" viewBox="0 0 91 90" fill="none" xmlns="http://www.w3.org/2000/svg">
<g clip-path="url(#clip0_17277_44935)">
<rect x="0.5" width="90" height="90" rx="45" fill="white"/>
<path d="M68.085 86.1582C71.5555 74.5218 73.2802 68.3835 70.1372 60.7385C66.9942 53.0935 72.93 13.966 43.4475 15.2573C36.9817 15.5446 27.8988 15.195 27.8036 35.8787C27.7084 56.5623 16.8959 51.3696 21.6527 62.9134C26.4095 74.4572 6.75102 83.1577 13.473 96.0437C20.195 108.93 2.6356 113.968 7.466 120.634C9.90869 120.01 12.3867 119.535 14.8867 119.21C14.5007 118.104 14.4582 116.274 16.1327 113.509C19.2316 108.393 23.9422 102.372 20.8731 95.3519C20.8731 95.3519 26.2509 98.3113 21.3366 110.41C19.7296 114.386 19.3233 116.97 19.5052 118.65C21.6674 118.493 24.0284 118.409 26.5025 118.459C25.9618 116.985 25.8743 115.383 26.2512 113.859C27.3979 109.325 29.7308 107.814 30.1574 104.086C30.1574 104.086 31.3053 109.797 29.6485 112.878C29.1885 113.751 28.9226 114.713 28.8688 115.698C28.8151 116.683 28.9747 117.668 29.3369 118.586C35.7929 118.903 42.1057 120.601 47.8495 123.566C65.1528 132.943 73.1978 118.031 73.1978 118.031C73.1978 118.031 64.6529 97.7891 68.085 86.1582Z" fill="#263238"/>
<path d="M63.7025 63.2252C70.6733 65.0385 73.129 70.762 74.349 83.0245C71.1319 86.5213 60.51 87.6396 60.51 87.6396C60.51 87.6396 57.0449 69.1801 63.7025 63.2252Z" fill="#CEDDFF"/>
<path opacity="0.7" d="M63.7025 63.2252C70.6733 65.0385 73.129 70.762 74.349 83.0245C71.1319 86.5213 60.51 87.6396 60.51 87.6396C60.51 87.6396 57.0449 69.1801 63.7025 63.2252Z" fill="white"/>
<path d="M72.2567 76.9284C72.495 81.6754 72.4076 86.4331 71.9951 91.1682C71.5754 98.0922 70.9513 104.904 69.6935 116.243L34.7962 115.467C35.7154 105.651 34.8681 94.4296 29.0491 72.1618C28.6934 70.986 28.6085 69.7451 28.8005 68.5319C28.9926 67.3187 29.4567 66.1646 30.1582 65.1563C30.8596 64.1479 31.7802 63.3114 32.8508 62.7094C33.9215 62.1074 35.1146 61.7554 36.3406 61.68C37.7209 61.5685 39.1957 61.4865 40.7001 61.4474C45.9828 61.202 51.2761 61.3281 56.5411 61.8248C58.2521 62.0228 60.0389 62.2845 61.7367 62.555C67.8286 63.5724 72.2397 70.7612 72.2567 76.9284Z" fill="#1A9FBD"/>
<path d="M42.1045 43.6602C43.3696 48.7934 44.8508 58.171 41.4645 61.4998C41.4645 61.4998 46.3059 60.8806 56.4184 67.4562C59.4859 63.2709 57.3098 61.853 57.3098 61.853C51.5516 60.372 51.4805 56.154 52.2596 52.2025L42.1045 43.6602Z" fill="#D67B72"/>
<path d="M54.325 66.1946C50.9462 66.5925 49.7865 71.6105 49.7865 71.6105C49.7865 71.6105 41.8004 65.695 39.3134 61.5879C40.3483 61.037 41.3535 60.4321 42.3249 59.7757C42.3249 59.7757 52.4122 64.1507 54.325 66.1946Z" fill="white"/>
<path d="M57.5695 65.6667C57.5695 65.6667 60.4602 66.5154 61.4328 70.6473C62.3663 63.23 58.9296 61.883 58.9296 61.883C58.0169 61.3317 56.9334 61.1352 55.8852 61.3308C56.6321 61.739 57.2107 62.3979 57.5189 63.1913C57.8271 63.9846 57.845 64.8614 57.5695 65.6667Z" fill="white"/>
<path opacity="0.2" d="M46.2891 47.1523L52.3091 52.2121C52.1079 53.1352 51.9918 54.0748 51.9623 55.0192C49.7878 54.6248 46.6712 52.2003 46.3243 49.9164C46.1488 49.0044 46.1369 48.0685 46.2891 47.1523Z" fill="black"/>
<path d="M38.444 33.478C39.7895 41.608 40.1929 45.0253 44.7158 49.0524C51.5281 55.042 61.1334 52.1672 62.2257 43.9427C63.2195 36.5363 60.862 24.4918 52.5477 21.6238C50.7921 20.9563 48.8901 20.7698 47.0382 21.0836C45.1864 21.3973 43.4519 22.1999 42.0141 23.4084C40.5763 24.6169 39.4873 26.1874 38.8596 27.9577C38.232 29.7279 38.0885 31.6337 38.444 33.478Z" fill="#D67B72"/>
<path d="M55.2192 35.7539C56.0187 37.3035 57.016 38.7427 58.1861 40.0354C57.8658 40.3037 57.4889 40.4959 57.0836 40.5974C56.6783 40.699 56.2552 40.7073 55.8462 40.6217L55.2192 35.7539Z" fill="#C06563"/>
<path d="M52.7933 44.0149C53.1727 44.0427 53.5538 44.0366 53.9321 43.9968C53.9579 43.9946 53.983 43.9869 54.0056 43.9743C54.0283 43.9617 54.048 43.9445 54.0635 43.9238C54.0791 43.903 54.0901 43.8793 54.0958 43.854C54.1015 43.8287 54.1018 43.8025 54.0967 43.7771C54.0866 43.7246 54.0578 43.6774 54.0155 43.6445C53.9733 43.6116 53.9206 43.5952 53.8671 43.5982C53.0087 43.6912 52.1404 43.5865 51.3287 43.2922C50.5169 42.9979 49.7833 42.5218 49.1839 41.9004C49.1523 41.8587 49.1062 41.8304 49.0548 41.821C49.0033 41.8117 48.9502 41.822 48.906 41.85C48.8841 41.8646 48.8654 41.8835 48.8509 41.9055C48.8365 41.9276 48.8266 41.9523 48.8219 41.9782C48.8172 42.0041 48.8178 42.0307 48.8236 42.0564C48.8294 42.0821 48.8403 42.1064 48.8556 42.1278C49.8884 43.2239 51.292 43.8965 52.7933 44.0149Z" fill="#263238"/>
<path d="M49.2736 35.638C49.3871 36.3199 49.8419 36.8391 50.3086 36.8114C50.7753 36.7838 51.0101 36.1775 50.8966 35.4956C50.7832 34.8137 50.3405 34.2967 49.8617 34.3221C49.3829 34.3476 49.1602 34.9561 49.2736 35.638Z" fill="#263238"/>
<path d="M57.7671 34.5595C57.8805 35.2414 58.3354 35.7606 58.8043 35.7209C59.2732 35.6811 59.5057 35.0869 59.3923 34.405C59.2789 33.7231 58.8361 33.2061 58.3552 33.2437C57.8742 33.2812 57.6054 33.8688 57.7671 34.5595Z" fill="#263238"/>
<path d="M58.1709 33.2995L59.7058 32.6795C59.7058 32.6795 59.087 34.0272 58.1709 33.2995Z" fill="#263238"/>
<path d="M47.5973 31.8073C47.6479 31.7979 47.6955 31.7764 47.7361 31.7446C47.7766 31.7129 47.8088 31.6718 47.83 31.6249C48.0421 31.1826 48.3592 30.7989 48.7535 30.5072C49.1479 30.2155 49.6076 30.0247 50.0926 29.9514C50.1436 29.948 50.1934 29.9339 50.2387 29.9102C50.2841 29.8865 50.3239 29.8536 50.3559 29.8136C50.3878 29.7736 50.411 29.7274 50.424 29.6779C50.4371 29.6284 50.4397 29.5768 50.4317 29.5262C50.4168 29.4185 50.3605 29.3209 50.2748 29.2541C50.189 29.1873 50.0806 29.1566 49.9725 29.1685C49.358 29.245 48.7728 29.4752 48.2708 29.8378C47.7689 30.2004 47.3664 30.6837 47.1007 31.243C47.0564 31.3392 47.0515 31.4489 47.087 31.5486C47.1226 31.6483 47.1958 31.7302 47.2909 31.7766C47.3857 31.8243 47.4949 31.8352 47.5973 31.8073Z" fill="#263238"/>
<path d="M60.3955 30.6155C60.4459 30.624 60.4975 30.622 60.547 30.6095C60.5965 30.597 60.6429 30.5743 60.6832 30.5429C60.769 30.4816 60.8276 30.3893 60.8464 30.2855C60.8652 30.1818 60.8428 30.0748 60.784 29.9872C60.3912 29.4693 59.8849 29.0485 59.3039 28.7571C58.7229 28.4657 58.0828 28.3115 57.4328 28.3063C57.3818 28.3098 57.332 28.3238 57.2867 28.3475C57.2413 28.3713 57.2015 28.4042 57.1696 28.4442C57.1376 28.4842 57.1144 28.5304 57.1013 28.5798C57.0883 28.6293 57.0857 28.6809 57.0937 28.7315C57.1062 28.8389 57.1587 28.9376 57.2407 29.008C57.3228 29.0784 57.4284 29.1152 57.5364 29.1112C58.052 29.125 58.5579 29.2549 59.0162 29.4914C59.4746 29.728 59.8736 30.065 60.1836 30.4773C60.237 30.5455 60.3116 30.5941 60.3955 30.6155Z" fill="#263238"/>
<path d="M49.6765 34.3936L51.2136 33.7615C51.2136 33.7615 50.5927 35.1213 49.6765 34.3936Z" fill="#263238"/>
<path d="M49.5578 22.1782C50.8016 23.3165 51.707 24.7761 52.1744 26.3961C53.03 26.1967 53.913 26.1418 54.7868 26.2336C54.1399 24.4229 52.8107 22.9369 51.0831 22.093C52.2735 22.373 53.3828 22.9253 54.3237 23.7065C55.2646 24.4877 56.0114 25.4765 56.5055 26.5952C57.9894 27.0924 59.3689 27.8586 60.5752 28.8556C60.5752 28.8556 55.164 14.9345 43.5867 18.6371C32.0095 22.3397 37.49 38.9061 37.49 38.9061L39.592 39.2874C39.592 39.2874 44.4637 39.9463 40.9338 29.1366C40.9338 29.1366 44.3917 31.1238 44.0822 34C44.0822 34 46.4047 28.9683 50.5955 26.9832C50.6736 25.3186 50.3159 23.6623 49.5578 22.1782Z" fill="#263238"/>
<path d="M37.5136 37.6121C37.5136 37.6121 26.8832 24.6037 43.5915 17.1026C43.5915 17.1026 32.2895 14.8157 34.3638 4.68551L46.3372 15.2422L57.2963 4.48977C57.2963 4.48977 60.9192 12.0347 48.6748 16.9389C48.6748 16.9389 54.6064 15.6064 57.806 22.1137C57.806 22.1137 51.9252 16.7672 44.9872 19.452C32.2377 24.3894 37.5136 37.6121 37.5136 37.6121Z" fill="#CEDDFF"/>
<path d="M35.9439 40.6049C36.9347 42.085 38.4709 43.1127 40.217 43.4637C42.4519 43.869 43.235 41.6153 42.3292 39.4546C41.5069 37.5211 39.3951 34.9919 37.2309 35.5726C35.0667 36.1534 34.6726 38.7397 35.9439 40.6049Z" fill="#D67B72"/>
<path d="M62.8185 80.802L57.9345 69.6843C57.9345 69.6843 61.7221 74.8758 63.0588 72.8722C64.177 71.1783 58.9433 68.7318 57.2441 67.9869C57.0867 67.9207 56.9149 67.8963 56.7453 67.9158C56.5757 67.9353 56.4139 67.9981 56.2756 68.0982C54.4456 69.4509 47.8228 74.6634 50.8132 77.5766C54.3079 80.943 56.0916 69.113 56.0916 69.113L55.2594 82.1638L56.8334 82.7736L56.9868 69.7495L61.7056 82.1225L62.8185 80.802ZM62.3008 72.3729C61.7378 73.0693 59.0513 69.6498 59.0513 69.6498C59.0513 69.6498 62.9144 71.6731 62.3371 72.3794L62.3008 72.3729ZM51.4639 76.3969C50.1309 74.1836 55.1223 69.9853 55.1223 69.9853C55.1223 69.9853 52.8332 78.6167 51.5001 76.4034L51.4639 76.3969Z" fill="#263238"/>
<path d="M102.908 88.3046L63.4287 81.1445L61.9367 89.3714L101.428 96.5336C101.569 93.7388 102.066 90.9734 102.908 88.3046Z" fill="#CEDDFF"/>
<path opacity="0.7" d="M102.908 88.3046L63.4287 81.1445L61.9367 89.3714L101.428 96.5336C101.569 93.7388 102.066 90.9734 102.908 88.3046Z" fill="white"/>
<path d="M69.0492 91.1111L56.6424 88.861L56.5435 88.7182C56.0608 88.0244 55.7198 87.2421 55.5401 86.4161C55.3604 85.5902 55.3456 84.7369 55.4964 83.9053C55.6473 83.0736 55.9608 82.2799 56.4191 81.5696C56.8774 80.8594 57.4713 80.2467 58.167 79.7665L58.3097 79.6676L70.7165 81.9177L69.8459 82.521C68.6397 83.3614 67.8153 84.6453 67.5529 86.0918C67.2906 87.5384 67.6116 89.03 68.4459 90.2405L69.0492 91.1111Z" fill="#CEDDFF"/>
<path d="M101.741 97.0433L68.229 90.9656C67.2625 89.6067 66.8524 87.9297 67.0826 86.2781C67.2049 85.403 67.5082 84.563 67.9732 83.8116C68.4382 83.0602 69.0546 82.4139 69.7832 81.914L69.9259 81.8151L103.438 87.8928C103.551 87.9133 103.652 87.9772 103.719 88.0709C103.785 88.1646 103.813 88.2807 103.796 88.3945C103.775 88.5098 103.709 88.6121 103.613 88.6789C103.516 88.7457 103.397 88.7714 103.282 88.7505L70.0966 82.732C68.9665 83.5756 68.1981 84.8163 67.9465 86.2039C67.6948 87.5916 67.9785 89.0231 68.7404 90.2098L101.89 96.2218C102.003 96.2423 102.104 96.3062 102.171 96.3999C102.237 96.4936 102.265 96.6097 102.248 96.7235C102.219 96.8308 102.151 96.9233 102.057 96.9826C101.963 97.0418 101.85 97.0635 101.741 97.0433Z" fill="#CEDDFF"/>
<path d="M68.1522 99.561L56.9173 97.5234L56.8283 97.395C55.9547 96.1323 55.6179 94.5745 55.8919 93.0637C56.1659 91.553 57.0283 90.2127 58.2896 89.3372L58.4203 89.2361L69.6552 91.2737L68.8681 91.8297C68.3206 92.1958 67.8523 92.6683 67.4911 93.2191C67.1299 93.7699 66.8832 94.3877 66.7657 95.0358C66.6481 95.6839 66.6621 96.349 66.8069 96.9916C66.9517 97.6341 67.2242 98.241 67.6083 98.7761L68.1522 99.561Z" fill="#263238"/>
<path d="M71.3334 82.0258L60.0984 79.9882L60.0116 79.8477C59.138 78.585 58.8013 77.0273 59.0753 75.5165C59.3493 74.0057 60.2116 72.6655 61.473 71.79L61.6014 71.701L72.8364 73.7385L72.0514 74.2825C71.5039 74.6486 71.0356 75.1211 70.6744 75.6719C70.3132 76.2227 70.0666 76.8405 69.949 77.4886C69.8315 78.1367 69.8455 78.8018 69.9903 79.4443C70.135 80.0869 70.4076 80.6937 70.7916 81.2288L71.3334 82.0258Z" fill="#CEDDFF"/>
<path d="M68.9458 96.404C68.8195 96.075 68.6283 95.7748 68.3837 95.5213C68.139 95.2677 67.8459 95.0659 67.5216 94.9279C67.1974 94.79 66.8487 94.7186 66.4964 94.7182C66.144 94.7177 65.7952 94.7881 65.4706 94.9252L65.4102 94.9142C63.2099 95.763 60.9229 96.7457 58.6885 97.5758C56.4541 98.4059 54.1792 99.2536 51.9469 99.9343C49.8164 100.639 47.6332 101.174 45.418 101.533C44.659 101.658 43.8894 101.706 43.1208 101.678C42.5051 100.119 41.9224 98.5156 41.4231 96.8653C40.8391 94.7878 40.3099 92.6829 39.8642 90.5308C39.4185 88.3786 39.0497 86.2154 38.7248 84.0851C38.5629 82.9827 38.4108 81.8945 38.2852 80.7986C38.1595 79.7027 38.0426 78.5584 37.9532 77.6064L37.9817 77.4493C37.8141 76.1052 37.1374 74.8766 36.0911 74.0164C35.0447 73.1563 33.7084 72.7301 32.3572 72.8257C31.0061 72.9213 29.743 73.5314 28.8282 74.5303C27.9134 75.5292 27.4165 76.8409 27.4398 78.1953C27.5129 79.5811 27.6057 80.7209 27.749 81.9947C27.8923 83.2685 28.051 84.4577 28.2294 85.6755C28.6126 88.1033 29.0947 90.5366 29.6942 92.9413C30.2988 95.3787 31.0334 97.782 31.8948 100.141C32.7898 102.555 33.8524 104.903 35.0749 107.169L35.1892 107.364C35.3111 107.599 35.4597 107.818 35.632 108.018C36.6094 109.18 37.9019 110.034 39.3536 110.478C40.3794 110.802 41.4508 110.958 42.5264 110.941C44.1324 110.92 45.7291 110.693 47.2778 110.268C49.8959 109.549 52.4422 108.591 54.8845 107.405C57.234 106.284 59.4902 105.058 61.6749 103.745C63.8596 102.432 65.9664 101.067 68.0555 99.5242C68.5318 99.1789 68.8784 98.6837 69.0398 98.1179C69.2013 97.5522 69.1681 96.9486 68.9458 96.404Z" fill="#D67B72"/>
<path d="M33.4487 62.4035C26.9073 65.4471 25.5549 71.5282 26.5223 83.8072C30.3231 86.6553 40.9748 85.8544 40.9748 85.8544C40.9748 85.8544 41.0643 67.1287 33.4487 62.4035Z" fill="#CEDDFF"/>
<path opacity="0.7" d="M33.4487 62.4035C26.9073 65.4471 25.5549 71.5282 26.5223 83.8072C30.3231 86.6553 40.9748 85.8544 40.9748 85.8544C40.9748 85.8544 41.0643 67.1287 33.4487 62.4035Z" fill="white"/>
</g>
<defs>
<clipPath id="clip0_17277_44935">
<rect x="0.5" width="90" height="90" rx="45" fill="white"/>
</clipPath>
</defs>
</svg>
