<svg width="90" height="90" viewBox="0 0 90 90" fill="none" xmlns="http://www.w3.org/2000/svg">
<g clip-path="url(#clip0_17277_44852)">
<rect width="90" height="90" rx="45" fill="white"/>
<path d="M39.1244 14.1788C39.1244 14.1788 21.6322 12.2806 27.4469 24.1022C27.4469 24.1022 13.9794 26.505 23.6265 37.9662C23.6265 37.9662 11.1682 46.2678 20.8393 51.5538C20.8393 51.5538 12.4296 68.5534 29.3091 62.2582C29.3091 62.2582 36.8177 74.8847 47.0055 63.4596C47.0055 63.4596 63.4645 73.6713 64.0651 62.2582C64.0651 62.2582 77.4245 60.8285 64.9902 49.6557C64.9902 49.6557 70.1922 46.0515 64.1733 37.9662C64.1733 37.9662 71.1773 33.2447 61.7705 27.1537C61.7705 27.1537 68.5944 19.9454 58.0102 16.3413C58.0102 16.3413 60.0165 7.59518 49.0599 12.2445C49.0959 12.2085 47.7744 3.81082 39.1244 14.1788Z" fill="#263238"/>
<path d="M18.4615 82.9951C12.3705 87.0558 10.5563 93.9878 11.121 100.944C11.2171 102.253 13.2715 102.289 13.1634 100.944C12.6708 94.7807 14.0043 88.3893 19.4706 84.7371C20.5519 84.0043 19.5547 82.2142 18.4615 82.9591V82.9951Z" fill="#325288"/>
<g opacity="0.2">
<path d="M18.4624 82.9912C12.3714 87.0519 10.5573 93.9839 11.122 100.94C11.2181 102.249 13.2725 102.285 13.1643 100.94C12.6718 94.7768 14.0053 88.3854 19.4716 84.7332C20.5529 84.0004 19.5557 82.2103 18.4624 82.9552V82.9912Z" fill="black"/>
</g>
<path d="M32.4569 59.1317L48.0749 59.348C51.2106 59.3851 54.2199 60.5898 56.5148 62.727C58.8097 64.8642 60.2253 67.7802 60.4852 70.9053C61.0559 82.6293 60.8995 94.3773 60.0167 106.082C60.0167 106.43 59.9446 106.863 59.8725 107.343C59.4565 110.37 57.9479 113.14 55.631 115.132C53.3141 117.123 50.3489 118.199 47.294 118.156L25.4408 117.855C22.8364 117.839 20.303 117.004 18.1989 115.469C16.0948 113.934 14.5263 111.777 13.7153 109.302C13.7153 109.085 13.5951 108.893 13.5591 108.713C12.61 104.28 12.3577 94.8729 13.7994 90.56C14.5923 88.1572 18.9053 84.7453 19.6862 82.3425C20.8876 78.6302 18.3526 70.3287 19.9024 66.7245C20.9715 65 22.3335 63.4754 23.9271 62.2193C26.2879 60.166 29.3287 59.0653 32.4569 59.1317Z" fill="#325288"/>
<path opacity="0.5" d="M32.4569 59.1317L48.0749 59.348C51.2106 59.3851 54.2199 60.5898 56.5148 62.727C58.8097 64.8642 60.2253 67.7802 60.4852 70.9053C61.0559 82.6293 60.8995 94.3773 60.0167 106.082C60.0167 106.43 59.9446 106.863 59.8725 107.343C59.4565 110.37 57.9479 113.14 55.631 115.132C53.3141 117.123 50.3489 118.199 47.294 118.156L25.4408 117.855C22.8364 117.839 20.303 117.004 18.1989 115.469C16.0948 113.934 14.5263 111.777 13.7153 109.302C13.7153 109.085 13.5951 108.893 13.5591 108.713C12.61 104.28 12.3577 94.8729 13.7994 90.56C14.5923 88.1572 18.9053 84.7453 19.6862 82.3425C20.8876 78.6302 18.3526 70.3287 19.9024 66.7245C20.9715 65 22.3335 63.4754 23.9271 62.2193C26.2879 60.166 29.3287 59.0653 32.4569 59.1317Z" fill="black"/>
<path d="M26.2105 61.7416C26.0249 61.4852 25.7822 61.2755 25.5017 61.1289C24.9433 61.4831 24.4167 61.885 23.9279 62.3303C22.3343 63.5864 20.9723 65.111 19.9032 66.8355C18.3534 70.4396 20.9124 78.7532 19.687 82.4535C18.9061 84.8563 14.5931 88.2682 13.8002 90.6709C12.3946 94.9839 12.5988 104.391 13.5599 108.824C13.5599 109.004 13.656 109.196 13.7161 109.413C14.4066 111.566 15.6745 113.489 17.3818 114.971C19.0891 116.454 21.1704 117.44 23.3993 117.822C23.8393 117.639 24.2454 117.383 24.6006 117.065C26.4147 115.167 28.5532 65.2496 26.2105 61.7416Z" fill="#325288"/>
<path opacity="0.2" d="M26.2105 61.7416C26.0249 61.4852 25.7822 61.2755 25.5017 61.1289C24.9433 61.4831 24.4167 61.885 23.9279 62.3303C22.3343 63.5864 20.9723 65.111 19.9032 66.8355C18.3534 70.4396 20.9124 78.7532 19.687 82.4535C18.9061 84.8563 14.5931 88.2682 13.8002 90.6709C12.3946 94.9839 12.5988 104.391 13.5599 108.824C13.5599 109.004 13.656 109.196 13.7161 109.413C14.4066 111.566 15.6745 113.489 17.3818 114.971C19.0891 116.454 21.1704 117.44 23.3993 117.822C23.8393 117.639 24.2454 117.383 24.6006 117.065C26.4147 115.167 28.5532 65.2496 26.2105 61.7416Z" fill="white"/>
<path d="M70.9252 63.8435C70.9252 64.7205 70.8531 65.7897 70.8291 66.7748C70.8051 67.76 70.8291 68.8052 70.8291 69.8143C70.8291 71.8447 70.9012 73.887 71.0333 75.9054C71.2419 79.9367 71.7154 83.95 72.451 87.9192L72.7633 89.3849L72.9195 90.1057C72.9195 90.2739 72.9195 90.2139 72.9195 90.2619C72.9195 90.31 72.8474 90.3941 73.1958 90.6704C74.5373 91.3658 76.022 91.74 77.5328 91.7636C81.5214 91.9313 85.5169 91.71 89.4626 91.1029L90.7961 95.512C86.603 97.3562 82.1413 98.5163 77.5809 98.9479C74.8153 99.2616 72.0158 98.8475 69.4595 97.7465C68.6166 97.3445 67.8391 96.8181 67.1529 96.1847C66.3984 95.4844 65.7759 94.6543 65.3147 93.7339C65.2186 93.5056 65.1105 93.2654 65.0144 93.0251L64.8943 92.6767L64.7982 92.3763L64.5579 91.5594L64.0893 89.9135C62.9463 85.582 62.1746 81.1609 61.7827 76.6983C61.5905 74.4757 61.4583 72.2531 61.4463 70.0186C61.4463 68.9013 61.4463 67.796 61.4463 66.6667C61.4463 65.5374 61.5304 64.4682 61.6385 63.2188L70.9252 63.8435Z" fill="#FD967A"/>
<path d="M87.8292 91.5351L93.8361 89.4688L91.4333 96.8212C91.4333 96.8212 86.6278 97.6982 84.6455 95.2234L84.9098 94.5266C85.1473 93.8444 85.5319 93.2228 86.0364 92.7058C86.5409 92.1889 87.153 91.7892 87.8292 91.5351Z" fill="#FD967A"/>
<path d="M69.0543 54.7486C72.0337 56.0221 72.262 69.1653 72.262 69.1653L62.8191 73.6825C62.8191 73.6825 56.5839 59.5422 59.4913 56.5027C62.3986 53.4631 64.6933 52.8865 69.0543 54.7486Z" fill="#325288"/>
<path opacity="0.7" d="M69.0543 54.7486C72.0337 56.0221 72.262 69.1653 72.262 69.1653L62.8191 73.6825C62.8191 73.6825 56.5839 59.5422 59.4913 56.5027C62.3986 53.4631 64.6933 52.8865 69.0543 54.7486Z" fill="white"/>
<path opacity="0.2" d="M68.1745 57.2852L69.3278 70.4764L64.1738 73.2876L68.1745 57.2852Z" fill="black"/>
<path d="M68.4022 57.1768C68.7386 61.8862 68.27 73.1071 63.945 99.7418H32.9974C33.502 87.6679 32.7691 81.721 27.3989 58.4622C27.1899 57.5874 27.3156 56.666 27.7513 55.879C28.187 55.0921 28.9012 54.4966 29.7536 54.2093C33.2715 52.9146 36.9497 52.1062 40.6862 51.8066C45.3658 51.4759 50.0629 51.4759 54.7424 51.8066C58.4066 52.143 62.3712 52.7917 64.9181 53.2482C65.8521 53.4245 66.701 53.906 67.3316 54.617C67.9622 55.3281 68.3388 56.2285 68.4022 57.1768Z" fill="#325288"/>
<path opacity="0.9" d="M40.6512 51.8084C39.7141 51.8084 38.765 51.9646 37.8159 52.1088C37.4194 53.4423 37.047 57.0224 42.4893 61.0591C42.4893 61.0591 44.3875 56.7221 54.2989 60.134C54.2989 60.134 58.3115 56.3016 60.6422 59.3051C60.6181 57.9265 60.2978 56.5693 59.7028 55.3256C59.1079 54.0818 58.2523 52.9806 57.1942 52.0967C56.3653 51.9886 55.5243 51.9045 54.7074 51.8204C50.0281 51.4858 45.331 51.4818 40.6512 51.8084Z" fill="white"/>
<path d="M40.665 51.8163C45.3399 51.4675 50.0343 51.4675 54.7092 51.8163L55.6223 51.9004C56.7516 54.0268 57.0279 54.5074 54.3488 59.3009C54.3488 59.3009 42.0226 57.1264 38.8149 51.9364C39.3676 51.8764 40.0403 51.8403 40.665 51.8163Z" fill="#FD967A"/>
<path d="M42.0464 35.9961C42.9355 40.5133 43.8245 48.7908 40.6528 51.8063C40.6528 51.8063 41.8542 56.3956 50.2639 56.3956C59.5026 56.3956 54.685 51.8063 54.685 51.8063C49.6392 50.6049 49.7714 46.8686 50.6484 43.3966L42.0464 35.9961Z" fill="#FD967A"/>
<path opacity="0.2" d="M45.5662 39L50.6721 43.349C50.4534 44.1673 50.3086 45.0037 50.2396 45.8479C48.3053 45.5716 45.6623 43.4451 45.434 41.4388C45.33 40.6246 45.3748 39.7982 45.5662 39Z" fill="black"/>
<path d="M37.1664 28.1618C38.8964 35.5142 39.473 38.6739 43.8701 41.8455C50.5017 46.6511 59.1757 42.9027 59.6803 35.1778C60.1369 28.2218 57.2775 17.3493 49.4565 15.6313C47.7413 15.2448 45.9559 15.303 44.2694 15.8002C42.583 16.2975 41.0516 17.2173 39.8205 18.4725C38.5894 19.7277 37.6993 21.2766 37.2348 22.9724C36.7703 24.6681 36.7468 26.4544 37.1664 28.1618Z" fill="#FD967A"/>
<path d="M49.5286 14.1797C52.5201 14.6963 56.3165 19.1414 57.1094 20.9435C52.6282 20.1265 40.29 23.9469 40.29 23.9469C40.29 23.9469 34.7636 23.3222 37.8872 19.0573C41.0108 14.7924 49.5286 14.1797 49.5286 14.1797Z" fill="#263238"/>
<path d="M50.18 28.1133C50.2761 28.714 50.6846 29.1585 51.0811 29.0864C51.4775 29.0143 51.7178 28.4737 51.6097 27.885C51.5016 27.2963 51.1051 26.8398 50.7086 26.8998C50.3122 26.9599 50.0118 27.5006 50.18 28.1133Z" fill="#263238"/>
<path d="M56.667 26.949C56.7632 27.5497 57.1716 27.9942 57.5681 27.9221C57.9645 27.85 58.2048 27.3094 58.0967 26.7207C57.9886 26.1321 57.5921 25.6876 57.1957 25.7476C56.7992 25.8077 56.5589 26.3363 56.667 26.949Z" fill="#263238"/>
<path d="M57.0283 25.7939L58.4099 25.1211C58.4099 25.1211 57.8573 26.3825 57.0283 25.7939Z" fill="#263238"/>
<path d="M54.9014 28.4023C55.674 29.6909 56.6199 30.8672 57.7126 31.8984C57.4406 32.1703 57.1129 32.3799 56.7519 32.5126C56.391 32.6454 56.0055 32.6981 55.6222 32.6673L54.9014 28.4023Z" fill="#ED893E"/>
<path d="M53.929 36.1971C54.2313 36.1975 54.533 36.1693 54.83 36.113C54.8567 36.1137 54.8831 36.1084 54.9075 36.0976C54.9318 36.0869 54.9535 36.0708 54.9709 36.0507C54.9883 36.0305 55.001 36.0067 55.0082 35.9811C55.0153 35.9554 55.0166 35.9285 55.0121 35.9022C55.0076 35.876 54.9973 35.8511 54.982 35.8293C54.9667 35.8075 54.9467 35.7894 54.9236 35.7762C54.9004 35.763 54.8746 35.7552 54.8481 35.7532C54.8215 35.7512 54.7949 35.7551 54.77 35.7646C54.0203 35.9093 53.247 35.876 52.5125 35.6674C51.778 35.4587 51.1028 35.0805 50.5411 34.5632C50.5074 34.5302 50.4621 34.5117 50.415 34.5117C50.3678 34.5117 50.3225 34.5302 50.2888 34.5632C50.2558 34.5969 50.2373 34.6422 50.2373 34.6894C50.2373 34.7365 50.2558 34.7818 50.2888 34.8155C50.7727 35.2771 51.344 35.6371 51.9692 35.8744C52.5944 36.1117 53.2608 36.2214 53.929 36.1971Z" fill="#263238"/>
<path d="M46.3817 27.1907C46.4588 27.1898 46.5336 27.1651 46.596 27.1199C46.6584 27.0747 46.7053 27.0113 46.7301 26.9384C46.9741 26.4013 47.3262 25.9203 47.7644 25.5255C48.2026 25.1307 48.7176 24.8305 49.2771 24.6437C49.3216 24.6301 49.363 24.6077 49.3987 24.5778C49.4345 24.5479 49.4639 24.5112 49.4851 24.4697C49.5064 24.4283 49.5192 24.383 49.5226 24.3365C49.5261 24.2901 49.5202 24.2434 49.5053 24.1992C49.4917 24.1531 49.4689 24.1103 49.4384 24.0731C49.4079 24.036 49.3702 24.0053 49.3277 23.9829C49.2852 23.9605 49.2386 23.9468 49.1907 23.9427C49.1428 23.9386 49.0945 23.9441 49.0488 23.9589C48.379 24.1794 47.7638 24.5398 47.2439 25.0162C46.724 25.4926 46.3114 26.0741 46.0333 26.7221C46.0186 26.7671 46.0133 26.8145 46.0175 26.8616C46.0218 26.9087 46.0356 26.9544 46.058 26.996C46.0805 27.0376 46.1112 27.0741 46.1483 27.1035C46.1853 27.1328 46.228 27.1543 46.2736 27.1666L46.3817 27.1907Z" fill="#263238"/>
<path d="M57.6384 24.244C57.6992 24.2503 57.7606 24.2415 57.8171 24.2184C57.8737 24.1954 57.9237 24.1588 57.9628 24.1119C57.9934 24.0754 58.0163 24.033 58.0299 23.9874C58.0435 23.9418 58.0476 23.8938 58.042 23.8466C58.0364 23.7993 58.0211 23.7536 57.9972 23.7125C57.9732 23.6713 57.9411 23.6355 57.9027 23.6073C57.4625 23.2434 56.9421 22.9894 56.3843 22.8661C55.8266 22.7429 55.2476 22.754 54.695 22.8984C54.6501 22.9134 54.6085 22.9371 54.5727 22.9682C54.5369 22.9993 54.5076 23.037 54.4864 23.0794C54.4652 23.1218 54.4525 23.168 54.4491 23.2153C54.4458 23.2626 54.4518 23.31 54.4668 23.355C54.4818 23.3999 54.5055 23.4415 54.5365 23.4773C54.5676 23.5131 54.6054 23.5425 54.6478 23.5637C54.6901 23.5849 54.7363 23.5975 54.7836 23.6009C54.8309 23.6042 54.8784 23.5982 54.9233 23.5832C55.3624 23.4758 55.8206 23.4731 56.2609 23.5753C56.7013 23.6776 57.1114 23.882 57.4582 24.1719L57.6384 24.244Z" fill="#263238"/>
<path d="M50.48 26.9618L51.8616 26.2891C51.8616 26.2891 51.3089 27.5505 50.48 26.9618Z" fill="#263238"/>
<path d="M60.4629 73.5628L55.6574 62.6783C55.6574 62.6783 59.3577 67.7721 60.6672 65.8019C61.7604 64.156 56.6425 61.7412 54.9966 60.9963C54.8428 60.9301 54.6742 60.9052 54.5077 60.9241C54.3412 60.9431 54.1826 61.0053 54.0475 61.1045C52.2455 62.414 45.758 67.4958 48.7014 70.3671C52.1133 73.6709 53.8553 62.0896 53.8553 62.0896L53.0143 74.8603L54.5521 75.461L54.7323 62.7263L59.3096 74.8363L60.4629 73.5628ZM59.9704 65.3213C59.4177 66.0061 56.7627 62.6422 56.7627 62.6422C56.7627 62.6422 60.535 64.6365 59.9704 65.3213ZM49.3622 69.2378C48.0647 67.0633 52.9663 62.9546 52.9663 62.9546C52.9663 62.9546 50.6596 71.4123 49.3622 69.2378Z" fill="#263238"/>
<path d="M61.857 26.8167C61.4725 24.7864 59.8507 23.3687 58.2528 23.6691C57.5062 23.886 56.8615 24.362 56.4343 25.0116C56.0071 25.6611 55.8255 26.4417 55.9221 27.2132C55.5905 27.0853 55.23 27.0513 54.8803 27.1149C54.5306 27.1785 54.2053 27.3372 53.9398 27.5736C53.6051 26.7276 52.974 26.0324 52.1645 25.6174C51.3549 25.2024 50.422 25.096 49.5398 25.318C48.6575 25.54 47.8861 26.0753 47.3694 26.8241C46.8528 27.5729 46.626 28.484 46.7315 29.3877L38.5981 30.8894V31.3579L46.7916 29.8442C47.0035 30.816 47.5927 31.6638 48.4298 32.2012C49.2668 32.7385 50.2829 32.9214 51.2547 32.7095C52.2265 32.4976 53.0744 31.9083 53.6117 31.0713C54.1491 30.2343 54.3319 29.2182 54.12 28.2463C54.12 28.2463 54.12 28.1502 54.12 28.0902C54.3383 27.8156 54.6498 27.6309 54.9953 27.5711C55.3409 27.5113 55.6964 27.5806 55.9942 27.7658C55.9942 27.7658 55.9942 27.8619 55.9942 27.91C56.3666 29.9523 58.0005 31.3579 59.5984 31.0576C61.1962 30.7572 62.1934 28.8591 61.857 26.8167ZM51.0445 32.1749C50.4042 32.2925 49.7433 32.2175 49.1456 31.9596C48.5478 31.7016 48.04 31.2722 47.6863 30.7256C47.3326 30.179 47.1489 29.5398 47.1585 28.8888C47.1681 28.2378 47.3705 27.6043 47.7401 27.0684C48.1097 26.5324 48.6299 26.1181 49.235 25.8778C49.8401 25.6375 50.5029 25.5821 51.1395 25.7184C51.7761 25.8548 52.3579 26.1769 52.8115 26.644C53.2651 27.111 53.5699 27.7021 53.6876 28.3425C53.8415 29.2043 53.647 30.0919 53.147 30.8105C52.6469 31.5291 51.8821 32.0198 51.0205 32.1749H51.0445ZM59.5383 30.6011C58.1687 30.8533 56.7751 29.6159 56.4507 27.8259C56.1264 26.0358 56.9673 24.3779 58.3369 24.1256C59.7065 23.8733 61.0881 25.1227 61.4244 26.9008C61.7608 28.6788 60.8838 30.3488 59.5143 30.6011H59.5383Z" fill="#325288"/>
<path d="M40.2199 21.5197C42.887 23.5621 41.7217 30.9746 38.4059 33.2452C33.2399 32.0078 32.2547 15.4167 40.2199 21.5197Z" fill="#263238"/>
<path d="M36.3139 35.3255C37.0568 36.5862 38.2647 37.505 39.6778 37.8845C41.552 38.365 42.453 36.6831 41.8883 34.9291C41.3237 33.1751 39.81 31.2048 37.9478 31.4931C37.5404 31.5651 37.1574 31.7375 36.8335 31.9949C36.5096 32.2522 36.255 32.5862 36.0928 32.9668C35.9306 33.3473 35.8658 33.7623 35.9044 34.1742C35.943 34.586 36.0838 34.9818 36.3139 35.3255Z" fill="#FD967A"/>
<path opacity="0.2" d="M93.8613 90.2623C89.6204 89.6976 85.6679 80.0745 83.7457 80.3028C81.8235 80.5311 88.395 88.7125 85.7159 88.7125C83.0368 88.7125 81.4751 85.5649 80.3698 85.685C79.2645 85.8051 77.6426 89.169 75.7805 88.9287C73.9183 88.6885 75.1437 84.1232 74.1586 84.0511C73.1735 83.979 71.4195 89.6856 69.257 89.0369C67.0945 88.3881 72.8611 79.2816 71.7198 78.9332C70.5785 78.5848 67.9355 82.237 65.773 86.4178C64.9444 88.0943 63.5603 89.4316 61.8564 90.2022L93.8613 90.2623Z" fill="white"/>
<path opacity="0.2" d="M76.9217 77.6718C75.4681 77.4675 74.4469 81.384 75.9006 81.8886C77.3542 82.3932 78.3754 77.876 76.9217 77.6718Z" fill="white"/>
<path d="M31.8351 53.8848C35.9798 56.7802 48.1018 68.8421 26.2967 101.123C25.9369 101.659 25.7104 102.273 25.6359 102.913L25.3115 105.965C25.3115 106.104 25.3533 106.24 25.4313 106.355C25.5094 106.471 25.6202 106.56 25.7495 106.612C25.8788 106.664 26.0207 106.675 26.1568 106.646C26.2928 106.616 26.4169 106.546 26.5129 106.445C30.8619 100.33 43.1281 82.1294 43.1281 70.6562C43.1281 59.1829 39.0554 54.4375 36.4724 52.6354C35.9363 52.2634 35.3148 52.0331 34.6657 51.9659C34.0166 51.8987 33.3611 51.9967 32.7601 52.251L31.9191 52.5993C31.8023 52.6573 31.7028 52.745 31.6305 52.8535C31.5582 52.9621 31.5156 53.0877 31.5071 53.2179C31.4986 53.348 31.5244 53.4781 31.5819 53.5952C31.6395 53.7122 31.7268 53.8121 31.8351 53.8848Z" fill="#325288"/>
<path opacity="0.5" d="M31.8351 53.8848C35.9798 56.7802 48.1018 68.8421 26.2967 101.123C25.9369 101.659 25.7104 102.273 25.6359 102.913L25.3115 105.965C25.3115 106.104 25.3533 106.24 25.4313 106.355C25.5094 106.471 25.6202 106.56 25.7495 106.612C25.8788 106.664 26.0207 106.675 26.1568 106.646C26.2928 106.616 26.4169 106.546 26.5129 106.445C30.8619 100.33 43.1281 82.1294 43.1281 70.6562C43.1281 59.1829 39.0554 54.4375 36.4724 52.6354C35.9363 52.2634 35.3148 52.0331 34.6657 51.9659C34.0166 51.8987 33.3611 51.9967 32.7601 52.251L31.9191 52.5993C31.8023 52.6573 31.7028 52.745 31.6305 52.8535C31.5582 52.9621 31.5156 53.0877 31.5071 53.2179C31.4986 53.348 31.5244 53.4781 31.5819 53.5952C31.6395 53.7122 31.7268 53.8121 31.8351 53.8848Z" fill="black"/>
<path d="M44.8097 90.5259C42.8476 90.1282 40.9195 89.5779 39.0431 88.88C38.3838 88.6459 37.7578 88.3268 37.1809 87.9309V87.7387C36.5616 83.6517 36.2683 79.5219 36.304 75.3884C36.304 73.274 36.3039 71.1475 36.4121 69.0211C36.5202 66.8946 36.6163 64.7201 36.7485 62.7138L27.4858 61.8008C27.2215 64.2036 27.1374 66.4141 27.0413 68.7207C26.9451 71.0274 27.0413 73.286 27.0413 75.5927C27.1741 80.2974 27.7941 84.9758 28.8914 89.5528L28.9995 89.9853L29.0596 90.2135C29.0596 90.4058 29.1677 90.5859 29.2278 90.7782C29.4682 91.4548 29.8172 92.0878 30.261 92.6523C30.9039 93.4801 31.6991 94.1773 32.6037 94.7067C33.8654 95.439 35.2244 95.9891 36.6403 96.3406C38.9994 96.9695 41.4131 97.3718 43.8486 97.542C48.4114 97.8731 52.9944 97.8007 57.5444 97.3257V92.7244C53.2555 92.0757 48.9065 91.4149 44.8097 90.5259Z" fill="#FD967A"/>
<path d="M24.3128 56.2759C22.763 59.1232 24.3128 71.6896 24.3128 71.6896L38.9817 73.5638C38.9817 73.5638 39.9188 61.0214 36.8793 58.114C33.8398 55.2067 26.0789 53.0321 24.3128 56.2759Z" fill="#325288"/>
<g opacity="0.7">
<path d="M24.3128 56.2759C22.763 59.1232 24.3128 71.6896 24.3128 71.6896L38.9817 73.5638C38.9817 73.5638 39.9188 61.0214 36.8793 58.114C33.8398 55.2067 26.0789 53.0321 24.3128 56.2759Z" fill="white"/>
</g>
<path d="M54.4688 93.1816L61.8093 89.4453L60.0432 96.99C60.0432 96.99 55.3338 98.3115 53.1353 96.0289L54.4688 93.1816Z" fill="#FD967A"/>
<path d="M68.0908 90.6828L66.2767 96.9179L60.0415 96.99L61.8075 89.4453L68.0908 90.6828Z" fill="#FD967A"/>
<path d="M58.6585 52.719C63.7926 59.8197 66.6725 68.3003 66.9241 77.059C66.9241 77.1196 66.9481 77.1776 66.9909 77.2205C67.0337 77.2633 67.0918 77.2873 67.1523 77.2873C67.2129 77.2873 67.2709 77.2633 67.3137 77.2205C67.3565 77.1776 67.3806 77.1196 67.3806 77.059L68.4618 72.0012V71.7129C68.4618 70.5115 68.4618 63.111 62.4549 52.5868C62.4216 52.5279 62.3748 52.4777 62.3185 52.4401C62.2622 52.4025 62.1978 52.3787 62.1306 52.3706L59.031 52.0102C58.9433 51.9949 58.853 52.0078 58.773 52.0471C58.6931 52.0863 58.6277 52.15 58.5863 52.2288C58.5449 52.3076 58.5296 52.3976 58.5426 52.4857C58.5556 52.5738 58.5962 52.6555 58.6585 52.719Z" fill="#325288"/>
<path opacity="0.5" d="M58.6585 52.719C63.7926 59.8197 66.6725 68.3003 66.9241 77.059C66.9241 77.1196 66.9481 77.1776 66.9909 77.2205C67.0337 77.2633 67.0918 77.2873 67.1523 77.2873C67.2129 77.2873 67.2709 77.2633 67.3137 77.2205C67.3565 77.1776 67.3806 77.1196 67.3806 77.059L68.4618 72.0012V71.7129C68.4618 70.5115 68.4618 63.111 62.4549 52.5868C62.4216 52.5279 62.3748 52.4777 62.3185 52.4401C62.2622 52.4025 62.1978 52.3787 62.1306 52.3706L59.031 52.0102C58.9433 51.9949 58.853 52.0078 58.773 52.0471C58.6931 52.0863 58.6277 52.15 58.5863 52.2288C58.5449 52.3076 58.5296 52.3976 58.5426 52.4857C58.5556 52.5738 58.5962 52.6555 58.6585 52.719Z" fill="black"/>
</g>
<defs>
<clipPath id="clip0_17277_44852">
<rect width="90" height="90" rx="45" fill="white"/>
</clipPath>
</defs>
</svg>
